<svg version="1.1" id="Layer_1" xmlns="http://www.w3.org/2000/svg" xmlns:xlink="http://www.w3.org/1999/xlink" x="0px" y="0px"
	 width="100%" viewBox="0 0 1024 1024" enable-background="new 0 0 1024 1024" xml:space="preserve">
<path fill="#FFFFFF" opacity="1.000000" stroke="none" 
	d="
M477.000000,1025.000000 
	C318.000000,1025.000000 159.500000,1025.000000 1.000000,1025.000000 
	C1.000000,683.666687 1.000000,342.333344 1.000000,1.000000 
	C342.333344,1.000000 683.666687,1.000000 1025.000000,1.000000 
	C1025.000000,342.333344 1025.000000,683.666687 1025.000000,1025.000000 
	C842.500000,1025.000000 660.000000,1025.000000 477.000000,1025.000000 
M246.142380,572.192566 
	C245.936935,571.919922 245.669464,571.739014 245.137558,571.200989 
	C244.936966,570.923035 244.671326,570.739014 244.154099,570.196045 
	C243.972519,569.908752 243.722107,569.706848 243.220291,569.152039 
	C243.051025,568.875488 242.823441,568.660645 242.243439,567.885864 
	C235.803619,559.470581 232.122437,549.909851 230.915298,539.455322 
	C230.228821,533.510071 229.781235,527.501343 229.768738,521.520020 
	C229.685822,481.855072 229.749847,442.189819 229.765915,402.524658 
	C229.766754,400.447052 229.766037,398.369446 229.766037,396.422119 
	C211.471329,396.422119 194.078262,396.422119 176.482285,396.422119 
	C176.394943,398.323425 176.268433,399.799103 176.267899,401.274841 
	C176.253281,441.940002 176.064743,482.606598 176.377731,523.269348 
	C176.456848,533.547119 177.518112,543.918457 179.233261,554.059814 
	C182.060425,570.776428 188.894455,585.837036 200.762131,598.860840 
	C200.933105,599.129639 201.156952,599.343018 201.662170,599.912292 
	C201.857361,600.161926 202.092728,600.364868 202.692596,601.091125 
	C204.094772,602.430847 205.496948,603.770508 207.137680,605.619568 
	C207.583832,605.956909 208.029999,606.294312 208.757614,606.992004 
	C208.970917,607.222473 209.224762,607.392395 209.799301,607.893921 
	C210.029526,608.132202 210.304443,608.294983 210.927658,608.927551 
	C211.922989,609.647461 212.918320,610.367432 214.266708,611.622986 
	C215.695343,612.544312 217.123978,613.465576 218.953873,614.910889 
	C220.492767,615.772339 222.031662,616.633789 224.033600,617.976624 
	C224.601715,618.319824 225.147720,618.708069 225.741119,618.999817 
	C257.829773,634.777405 291.012177,635.471497 324.700867,625.508301 
	C336.526703,622.010986 347.465729,616.292847 356.841888,607.214233 
	C357.116272,607.039124 357.330658,606.808289 357.902008,606.291504 
	C358.156219,606.093689 358.357788,605.852051 358.913177,605.329895 
	C359.160065,605.131897 359.361786,604.895386 359.927673,604.367676 
	C360.169891,604.153931 360.368011,603.905090 360.929840,603.366943 
	C361.171448,603.153076 361.368958,602.904114 361.930176,602.365479 
	C362.171814,602.151245 362.369019,601.901917 362.946838,601.329895 
	C363.149658,601.056580 363.352448,600.783264 363.946533,600.245728 
	C364.198608,600.041138 364.384918,599.788025 364.903931,599.224060 
	C365.156494,599.012817 365.333862,598.750671 365.851562,598.176575 
	C366.103668,597.950439 366.271484,597.673218 366.925629,597.011414 
	C371.204773,590.104980 376.182556,583.527466 379.619843,576.224792 
	C387.127380,560.274780 389.302704,543.079834 389.333435,525.604370 
	C389.406708,483.959747 389.394806,442.315002 389.399689,400.670319 
	C389.399872,399.223602 389.211151,397.776917 389.116333,396.414398 
	C371.320953,396.414398 353.932648,396.414398 336.116089,396.414398 
	C336.116089,398.787201 336.115814,400.759796 336.116119,402.732391 
	C336.122437,443.377625 336.099945,484.022888 336.150238,524.668091 
	C336.168915,539.777588 333.428040,554.110046 324.447174,567.216492 
	C324.152039,567.682251 323.856934,568.148010 323.007904,568.934448 
	C321.536560,570.485840 320.065216,572.037231 318.160004,573.781250 
	C317.882904,573.949646 317.664764,574.175049 316.884430,574.766357 
	C312.158997,577.159363 307.667725,580.374390 302.666443,581.798950 
	C283.934662,587.134644 265.812164,585.964172 248.807693,574.441223 
	C248.351135,574.150208 247.894562,573.859131 247.184265,573.146667 
	C246.960297,572.891174 246.683792,572.720886 246.142380,572.192566 
M802.154236,448.229614 
	C801.849182,448.051697 801.544189,447.873779 801.187988,447.826294 
	C801.187988,447.826294 801.308472,447.754761 801.176575,447.229340 
	C800.884216,447.041412 800.591858,446.853455 800.262451,446.802399 
	C800.262451,446.802399 800.377991,446.720184 800.262573,446.143982 
	C799.857178,445.740051 799.451782,445.336121 799.004761,444.990601 
	C799.004761,444.990601 799.074463,444.973663 798.931580,444.263275 
	C794.594116,437.851532 793.029541,430.626923 792.863892,422.279205 
	C792.813293,421.510834 792.762756,420.742462 792.913147,419.060242 
	C792.937927,415.394958 792.692871,411.702209 793.062195,408.071960 
	C793.442200,404.337189 791.963745,402.355652 788.457214,401.772247 
	C776.844482,399.840240 765.252502,396.609772 753.595703,396.340393 
	C720.955444,395.585999 688.286682,396.062469 655.629211,396.066193 
	C654.161743,396.066376 652.694275,396.193726 651.122925,396.266663 
	C651.122925,473.888062 651.122925,551.224060 651.122925,628.612549 
	C669.026367,628.612549 686.463989,628.612549 704.580933,628.612549 
	C704.580933,604.647400 704.580933,580.934265 704.580933,556.635742 
	C707.203674,556.635742 709.164856,556.656921 711.125427,556.632507 
	C728.779053,556.412537 746.464478,556.757507 764.076355,555.780579 
	C778.606323,554.974792 792.649719,551.336792 805.003052,542.995728 
	C805.003052,542.995728 805.007751,543.033081 805.669678,542.962097 
	C806.868042,542.063965 808.066467,541.165894 809.142456,540.143433 
	C809.142456,540.143433 809.200562,540.307922 809.860535,540.188904 
	C811.005005,539.203613 812.149414,538.218262 813.163696,537.208923 
	C813.163696,537.208923 813.219971,537.328735 813.809509,537.240051 
	C814.216125,536.831299 814.622742,536.422607 814.999939,535.998779 
	C814.999939,535.998779 815.012329,536.029480 815.661072,535.851135 
	C838.248779,516.501282 844.688477,491.510040 841.385132,462.971069 
	C840.896423,458.748657 839.465881,457.245819 835.184753,457.596985 
	C824.209900,458.497345 813.571289,457.456818 804.123413,450.815857 
	C804.123413,450.815857 804.331909,450.687195 804.167175,450.173065 
	C803.855957,450.013458 803.544800,449.853851 803.178284,449.819305 
	C803.178284,449.819305 803.300354,449.757690 803.153015,449.229553 
	C802.847107,449.052704 802.541138,448.875854 802.175476,448.832672 
	C802.175476,448.832672 802.300964,448.757233 802.154236,448.229614 
M809.477112,361.490356 
	C809.477112,361.490356 809.362305,361.637146 809.001404,361.786041 
	C808.773865,361.947388 808.646179,362.166809 808.578186,362.543457 
	C808.578186,362.543457 808.482300,362.590820 807.918518,362.928162 
	C806.263062,367.691650 803.364319,372.407593 803.180115,377.227295 
	C802.576233,393.030701 802.885376,408.872284 802.984680,424.698303 
	C803.070374,438.346222 812.207520,447.688385 825.774902,447.757233 
	C852.263000,447.891693 878.756104,448.036041 905.237488,447.595856 
	C909.845276,447.519257 914.405701,444.593445 919.000000,443.000000 
	C919.000000,443.000000 918.984131,442.986267 919.628052,442.836975 
	C920.885925,441.357422 922.143799,439.877899 923.341614,438.289673 
	C923.341614,438.289673 923.458557,438.331482 924.010376,437.953827 
	C925.300171,434.061371 927.605591,430.194183 927.703247,426.272034 
	C928.117920,409.630463 928.102295,392.968536 927.801514,376.322021 
	C927.580444,364.086060 918.076172,355.079987 905.902039,354.968506 
	C895.245605,354.870911 884.587524,354.904785 873.930420,354.945801 
	C857.619629,355.008545 841.309082,355.127350 824.261963,355.118073 
	C823.530029,355.216492 822.798035,355.314911 821.320923,355.284637 
	C817.743286,357.020569 814.165649,358.756500 810.531006,360.586426 
	C810.531006,360.586426 810.430298,360.630371 810.057861,360.747986 
	C809.822021,360.894073 809.677307,361.103210 809.477112,361.490356 
M535.737427,518.023865 
	C530.569702,532.149231 525.401917,546.274658 520.234192,560.400085 
	C517.750427,556.539612 516.356262,552.823181 515.006897,549.090576 
	C497.006165,499.295349 478.987732,449.506470 461.077698,399.678619 
	C460.054138,396.830994 458.648071,395.873169 455.672455,395.942047 
	C447.178284,396.138641 438.676880,396.027832 430.178345,396.031830 
	C421.551727,396.035919 412.925110,396.032745 403.471710,396.032745 
	C404.795105,399.485321 405.842834,402.227600 406.896942,404.967377 
	C434.994446,477.993713 463.119080,551.009644 491.113190,624.075562 
	C492.526184,627.763611 494.271576,629.142944 498.326630,629.018799 
	C509.148163,628.687744 519.986267,628.896973 530.817749,628.893738 
	C545.574768,628.889343 545.473206,628.851074 550.771606,615.128540 
	C575.478088,551.139709 600.250122,487.176270 624.985413,423.198547 
	C628.391052,414.390076 631.722168,405.552795 635.360168,396.014648 
	C633.075012,396.014648 631.468201,396.014893 629.861389,396.014618 
	C615.363831,396.012177 600.862488,396.197357 586.370972,395.899200 
	C581.687439,395.802826 579.465393,397.093597 577.808105,401.741180 
	C564.050659,440.320557 549.968933,478.784332 535.737427,518.023865 
M290.624207,465.743469 
	C308.110870,477.961182 317.527313,494.723206 319.166901,515.983765 
	C319.285645,517.523560 320.840973,518.952515 321.728363,520.433044 
	C322.314880,518.895691 323.463226,517.335510 323.401764,515.824463 
	C322.725250,499.191498 316.510468,484.705383 305.288605,472.569427 
	C293.018860,459.300262 277.669189,452.022278 259.531097,451.087524 
	C258.136292,451.015656 256.664124,452.444031 255.227921,453.175049 
	C256.503296,453.897430 257.744507,455.174194 259.059387,455.255157 
	C270.274445,455.945862 280.569153,459.320831 290.624207,465.743469 
M263.141876,529.000305 
	C270.176453,524.400330 272.196442,517.341553 268.253204,511.139252 
	C264.567688,505.342346 256.934692,503.544708 251.174561,507.117096 
	C246.217972,510.191162 243.991501,517.057434 246.203796,522.446838 
	C248.791016,528.749634 254.524200,531.165039 263.141876,529.000305 
M305.892242,511.418610 
	C302.046082,490.514984 289.939117,476.755646 269.826416,470.135162 
	C266.395050,469.005676 262.659058,468.616486 259.030975,468.371490 
	C257.788208,468.287598 256.445038,469.690704 255.147751,470.414459 
	C256.267914,471.177887 257.357239,471.994324 258.525665,472.674896 
	C258.913330,472.900665 259.506134,472.761292 260.002197,472.815796 
	C279.019623,474.904175 291.988190,485.069275 298.886108,502.713501 
	C300.726898,507.421997 300.963440,512.743774 302.148132,517.733704 
	C302.401123,518.799377 303.573486,519.646667 304.322357,520.594543 
	C305.024811,519.634766 306.191833,518.735413 306.326263,517.701721 
	C306.556976,515.927551 306.142944,514.069580 305.892242,511.418610 
M260.968811,490.274750 
	C274.535645,493.200714 283.490631,502.942505 285.017883,516.160156 
	C285.194214,517.686096 286.439240,519.088623 287.188812,520.548340 
	C287.874176,518.944031 289.241364,517.294678 289.139038,515.742310 
	C288.157227,500.851685 276.162628,488.028992 261.426208,485.834351 
	C260.277130,485.663239 259.044006,485.373871 257.963623,485.626221 
	C256.986908,485.854340 256.165894,486.749176 255.276230,487.350037 
	C256.077515,488.209778 256.766235,489.240875 257.720520,489.867706 
	C258.334595,490.271027 259.338989,490.080017 260.968811,490.274750 
z"/>
<path fill="#1A8BF5" opacity="1.000000" stroke="none" 
	d="
M792.712280,419.974091 
	C792.762756,420.742462 792.813293,421.510834 792.549561,422.982086 
	C791.360413,431.794647 792.624084,439.217285 799.074463,444.973663 
	C799.074463,444.973663 799.004761,444.990601 799.026794,445.289581 
	C799.491882,445.965759 799.934937,446.342957 800.377991,446.720184 
	C800.377991,446.720184 800.262451,446.802399 800.288330,447.032104 
	C800.645691,447.426117 800.977051,447.590454 801.308472,447.754761 
	C801.308472,447.754761 801.187988,447.826294 801.243225,448.055664 
	C801.632629,448.442413 801.966797,448.599823 802.300964,448.757233 
	C802.300964,448.757233 802.175476,448.832672 802.236389,449.060059 
	C802.631653,449.444183 802.966003,449.600922 803.300354,449.757690 
	C803.300354,449.757690 803.178284,449.819305 803.240845,450.052429 
	C803.646179,450.419434 803.989075,450.553314 804.331909,450.687195 
	C804.331909,450.687195 804.123413,450.815857 804.220642,451.090637 
	C808.285889,453.572815 812.027405,456.789459 816.276794,457.743042 
	C822.160400,459.063416 828.450378,458.466400 834.513611,459.155060 
	C836.413513,459.370911 839.672913,461.031860 839.711365,462.122925 
	C840.053345,471.823486 840.929626,481.713898 839.490112,491.221527 
	C837.107910,506.955750 830.100342,520.796204 817.955688,531.649597 
	C816.684814,532.785339 815.979858,534.554321 815.012329,536.029480 
	C815.012329,536.029480 814.999939,535.998779 814.693848,536.020264 
	C813.998535,536.470703 813.609253,536.899719 813.219971,537.328735 
	C813.219971,537.328735 813.163696,537.208923 812.877563,537.240723 
	C811.461060,538.284302 810.330811,539.296082 809.200562,540.307861 
	C809.200562,540.307922 809.142456,540.143433 808.855103,540.136353 
	C807.381042,541.097168 806.194397,542.065125 805.007751,543.033081 
	C805.007751,543.033081 805.003052,542.995728 804.637024,542.989746 
	C803.324280,543.260010 802.298828,543.385803 801.442627,543.834656 
	C785.316589,552.287842 767.972595,555.060364 749.998352,555.003296 
	C736.839844,554.961609 723.681091,554.993103 710.522461,554.996460 
	C702.990051,554.998352 702.986267,555.002319 702.985657,562.303528 
	C702.983948,582.291321 702.900513,602.279785 703.062561,622.266296 
	C703.092651,625.974548 702.036133,627.154053 698.271240,627.096497 
	C684.782593,626.890320 671.285461,626.840088 657.799255,627.113159 
	C653.315002,627.203979 651.879761,626.082520 651.889893,621.355591 
	C652.046021,548.733643 652.039490,476.111176 651.906799,403.489136 
	C651.898804,399.114441 653.002258,397.860138 657.455139,397.883972 
	C692.432800,398.071350 727.417786,397.642517 762.386292,398.239014 
	C771.146790,398.388428 779.907898,401.363464 788.538208,403.553741 
	C790.020752,403.929962 791.472595,406.776764 791.840332,408.693115 
	C792.546814,412.373627 792.466309,416.205170 792.712280,419.974091 
M780.505127,500.863098 
	C780.755188,500.654755 780.952454,500.404755 781.751648,499.944214 
	C782.214478,499.001709 782.677246,498.059174 783.526978,496.846069 
	C783.769409,496.634277 783.950012,496.378815 784.534546,495.722626 
	C784.731873,495.179779 784.929260,494.636932 785.558105,493.709656 
	C785.747314,493.171051 785.936523,492.632446 786.565308,491.713654 
	C786.748474,491.170410 786.931641,490.627136 787.545349,489.690491 
	C787.711792,489.140778 787.878296,488.591064 788.626099,487.529785 
	C789.059387,480.903809 789.890259,474.268127 789.729126,467.656647 
	C789.665161,465.033386 787.400146,462.463745 786.017700,459.313477 
	C785.717590,458.845917 785.417419,458.378357 785.018433,457.288483 
	C784.395020,456.479584 783.771545,455.670685 783.019653,454.303131 
	C782.693909,453.853363 782.368164,453.403595 781.807190,452.530670 
	C781.610352,452.262085 781.356995,452.067017 780.806580,451.531799 
	C780.606384,451.273010 780.355591,451.080017 779.816956,450.530121 
	C779.611084,450.270905 779.354736,450.079285 778.710754,449.481873 
	C778.177185,449.276733 777.643616,449.071594 776.844360,448.478485 
	C776.636597,448.235107 776.386047,448.049438 775.934204,447.257751 
	C774.978333,446.808502 774.022522,446.359253 772.707825,445.464325 
	C772.180603,445.264801 771.653442,445.065277 770.702087,444.291748 
	C763.912537,439.673340 755.918701,439.528564 748.302979,439.180603 
	C734.854065,438.566162 721.356262,438.954834 707.880737,439.094696 
	C706.559998,439.108398 705.251648,440.313171 703.371216,441.580688 
	C703.244995,442.225494 703.008972,442.870178 703.008301,443.515137 
	C702.987244,465.118469 702.972961,486.721863 703.027466,508.325104 
	C703.030579,509.562622 703.622070,510.798615 704.164490,512.815796 
	C705.671570,513.204163 707.173828,513.904480 708.686584,513.928040 
	C716.151978,514.044312 723.630615,514.232056 731.084717,513.919678 
	C740.965454,513.505554 750.856201,512.912048 760.681763,511.838074 
	C763.918823,511.484283 766.966614,509.399200 770.665405,508.003510 
	C771.137146,507.704498 771.608887,507.405487 772.703918,507.011810 
	C773.516846,506.392090 774.329712,505.772339 775.697815,505.023346 
	C776.148682,504.702698 776.599548,504.382080 777.672668,503.947479 
	C778.150879,503.328003 778.629028,502.708527 779.503906,501.837219 
	C779.753296,501.637878 779.949463,501.395447 780.505127,500.863098 
z"/>
<path fill="#0A69C4" opacity="1.000000" stroke="none" 
	d="
M822.066101,355.413300 
	C822.798035,355.314911 823.530029,355.216492 824.958740,355.419922 
	C827.473877,355.810669 829.292114,355.975555 831.110474,355.976868 
	C855.553345,355.994263 879.996277,355.956207 904.439087,356.004028 
	C915.349976,356.025360 926.274597,364.634338 925.915466,374.074982 
	C925.100769,395.492859 928.982971,417.103638 923.458557,438.331482 
	C923.458557,438.331482 923.341614,438.289673 923.023499,438.335297 
	C921.464966,439.916046 920.224548,441.451172 918.984131,442.986267 
	C918.984131,442.986267 919.000000,443.000000 918.615906,443.020508 
	C912.895020,445.742340 907.232910,446.195282 901.310913,446.155365 
	C875.831177,445.983612 850.349670,446.087463 824.868774,446.078430 
	C815.154846,446.074982 806.622559,440.043915 805.215027,430.479218 
	C803.894409,421.505035 803.917236,412.266052 804.078857,403.156525 
	C804.320618,389.529907 801.610107,375.516296 808.482300,362.590820 
	C808.482300,362.590820 808.578186,362.543457 808.864258,362.545380 
	C809.220947,362.243927 809.291626,361.940552 809.362305,361.637146 
	C809.362305,361.637146 809.477112,361.490356 809.810852,361.507629 
	C810.239807,361.226715 810.335083,360.928528 810.430298,360.630371 
	C810.430298,360.630371 810.531006,360.586426 810.930176,360.580994 
	C814.908203,358.854797 818.487183,357.134033 822.066101,355.413300 
M870.093872,412.490906 
	C870.093872,416.923676 870.093872,421.356476 870.093872,425.933167 
	C878.049927,425.933167 885.382996,426.423889 892.620605,425.803192 
	C900.808594,425.100983 905.946533,418.249725 904.060608,410.315521 
	C903.123901,406.375031 899.982483,402.958557 897.753113,399.159546 
	C901.989380,396.743683 903.891357,392.400818 902.924194,386.926788 
	C902.107239,382.302643 899.373108,378.430023 894.836670,377.741547 
	C886.771057,376.517426 878.543945,376.357391 870.092651,375.730621 
	C870.092651,388.550476 870.092651,400.022522 870.093872,412.490906 
M859.712952,384.122253 
	C855.421021,377.063080 847.924744,374.177032 838.946106,376.127075 
	C832.312256,377.567841 827.361023,382.533661 827.035706,389.185852 
	C826.645630,397.159607 826.592346,405.190857 827.080811,413.155029 
	C827.563416,421.024323 833.531006,426.217865 841.708740,426.907013 
	C851.427002,427.726044 858.658081,424.092133 860.371216,416.424438 
	C861.528076,411.246307 861.081543,405.709900 861.347778,400.421875 
	C854.789551,400.421875 849.228760,400.421875 843.696167,400.421875 
	C843.696167,402.729919 843.696167,404.644623 843.696167,407.056671 
	C846.950806,407.056671 849.863831,407.056671 853.038940,407.056671 
	C853.038940,408.869720 853.100647,410.184692 853.028137,411.492188 
	C852.732239,416.827515 850.113037,419.533051 845.013123,419.833923 
	C839.808655,420.140961 835.798645,417.511078 835.483398,412.424866 
	C835.021118,404.968201 835.208984,397.449341 835.535156,389.975128 
	C835.692139,386.376129 837.898376,383.690369 841.702759,383.102081 
	C845.462036,382.520813 849.583557,382.598419 851.329956,386.524994 
	C853.533020,391.478241 857.038574,390.376740 861.243469,389.847412 
	C860.781921,387.995667 860.391052,386.427734 859.712952,384.122253 
z"/>
<path fill="#3D8ED9" opacity="1.000000" stroke="none" 
	d="
M535.861328,517.653442 
	C549.968933,478.784332 564.050659,440.320557 577.808105,401.741180 
	C579.465393,397.093597 581.687439,395.802826 586.370972,395.899200 
	C600.862488,396.197357 615.363831,396.012177 629.861389,396.014618 
	C631.468201,396.014893 633.075012,396.014648 635.360168,396.014648 
	C631.722168,405.552795 628.391052,414.390076 624.985413,423.198547 
	C600.250122,487.176270 575.478088,551.139709 550.771606,615.128540 
	C545.473206,628.851074 545.574768,628.889343 530.817749,628.893738 
	C519.986267,628.896973 509.148163,628.687744 498.326630,629.018799 
	C494.271576,629.142944 492.526184,627.763611 491.113190,624.075562 
	C463.119080,551.009644 434.994446,477.993713 406.896942,404.967377 
	C405.842834,402.227600 404.795105,399.485321 403.471710,396.032745 
	C412.925110,396.032745 421.551727,396.035919 430.178345,396.031830 
	C438.676880,396.027832 447.178284,396.138641 455.672455,395.942047 
	C458.648071,395.873169 460.054138,396.830994 461.077698,399.678619 
	C478.987732,449.506470 497.006165,499.295349 515.006897,549.090576 
	C516.356262,552.823181 517.750427,556.539612 520.234192,560.400085 
	C525.401917,546.274658 530.569702,532.149231 535.861328,517.653442 
M596.848999,491.355621 
	C608.754700,460.562622 620.660339,429.769623 632.457520,399.257202 
	C631.241760,398.439636 631.104065,398.266052 630.965210,398.265137 
	C615.152954,398.161346 599.339722,397.983337 583.529846,398.138550 
	C582.217957,398.151428 580.293762,400.182678 579.726868,401.681824 
	C574.337891,415.932251 569.156189,430.261444 563.963501,444.585602 
	C556.623535,464.832581 549.309265,485.088928 542.013733,505.351959 
	C537.190063,518.749329 532.467041,532.183044 527.600952,545.564880 
	C525.482056,551.391785 523.117310,557.129333 520.864319,562.907471 
	C520.281860,562.997070 519.699463,563.086670 519.117065,563.176270 
	C517.510986,559.579468 515.666382,556.068481 514.336670,552.372253 
	C503.955109,523.514648 493.723022,494.603271 483.342316,465.745361 
	C475.768127,444.689667 467.920959,423.731293 460.488373,402.626373 
	C459.183563,398.921326 457.438049,397.838043 453.702789,397.889343 
	C439.544952,398.083954 425.382843,397.959412 411.222382,397.979645 
	C409.644989,397.981903 408.067871,398.146545 406.022736,398.262390 
	C406.501190,399.606232 406.746979,400.359833 407.035217,401.096863 
	C413.301147,417.118500 419.658112,433.105194 425.822418,449.165833 
	C436.330658,476.544373 446.668213,503.988434 457.175995,531.367188 
	C463.291168,547.300659 469.659668,563.136963 475.800598,579.060791 
	C481.399963,593.580261 486.838165,608.161926 492.367401,622.708618 
	C493.349792,625.293091 494.533112,627.174500 498.035248,627.120178 
	C512.192322,626.900818 526.357971,627.171143 540.511597,626.861206 
	C542.394958,626.819946 545.162842,624.893372 545.925293,623.144287 
	C549.547485,614.834473 552.647949,606.295532 555.877197,597.816406 
	C563.425720,577.996277 570.890259,558.143860 578.487244,538.342346 
	C584.418457,522.882751 590.497803,507.479980 596.848999,491.355621 
z"/>
<path fill="#328ADC" opacity="1.000000" stroke="none" 
	d="
M792.812744,419.517151 
	C792.466309,416.205170 792.546814,412.373627 791.840332,408.693115 
	C791.472595,406.776764 790.020752,403.929962 788.538208,403.553741 
	C779.907898,401.363464 771.146790,398.388428 762.386292,398.239014 
	C727.417786,397.642517 692.432800,398.071350 657.455139,397.883972 
	C653.002258,397.860138 651.898804,399.114441 651.906799,403.489136 
	C652.039490,476.111176 652.046021,548.733643 651.889893,621.355591 
	C651.879761,626.082520 653.315002,627.203979 657.799255,627.113159 
	C671.285461,626.840088 684.782593,626.890320 698.271240,627.096497 
	C702.036133,627.154053 703.092651,625.974548 703.062561,622.266296 
	C702.900513,602.279785 702.983948,582.291321 702.985657,562.303528 
	C702.986267,555.002319 702.990051,554.998352 710.522461,554.996460 
	C723.681091,554.993103 736.839844,554.961609 749.998352,555.003296 
	C767.972595,555.060364 785.316589,552.287842 801.442627,543.834656 
	C802.298828,543.385803 803.324280,543.260010 804.652039,543.001221 
	C792.649719,551.336792 778.606323,554.974792 764.076355,555.780579 
	C746.464478,556.757507 728.779053,556.412537 711.125427,556.632507 
	C709.164856,556.656921 707.203674,556.635742 704.580933,556.635742 
	C704.580933,580.934265 704.580933,604.647400 704.580933,628.612549 
	C686.463989,628.612549 669.026367,628.612549 651.122925,628.612549 
	C651.122925,551.224060 651.122925,473.888062 651.122925,396.266663 
	C652.694275,396.193726 654.161743,396.066376 655.629211,396.066193 
	C688.286682,396.062469 720.955444,395.585999 753.595703,396.340393 
	C765.252502,396.609772 776.844482,399.840240 788.457214,401.772247 
	C791.963745,402.355652 793.442200,404.337189 793.062195,408.071960 
	C792.692871,411.702209 792.937927,415.394958 792.812744,419.517151 
z"/>
<path fill="#3D8ED9" opacity="1.000000" stroke="none" 
	d="
M200.561691,598.438660 
	C188.894455,585.837036 182.060425,570.776428 179.233261,554.059814 
	C177.518112,543.918457 176.456848,533.547119 176.377731,523.269348 
	C176.064743,482.606598 176.253281,441.940002 176.267899,401.274841 
	C176.268433,399.799103 176.394943,398.323425 176.482285,396.422119 
	C194.078262,396.422119 211.471329,396.422119 229.766037,396.422119 
	C229.766037,398.369446 229.766754,400.447052 229.765915,402.524658 
	C229.749847,442.189819 229.685822,481.855072 229.768738,521.520020 
	C229.781235,527.501343 230.228821,533.510071 230.915298,539.455322 
	C232.122437,549.909851 235.803619,559.470581 242.250076,568.318970 
	C242.256714,568.752075 241.988800,569.010681 241.687073,568.854614 
	C231.774338,557.374695 228.360565,543.644958 228.199478,529.457092 
	C227.722794,487.470459 227.960175,445.474762 228.119278,403.483337 
	C228.135803,399.120270 227.052704,397.754089 222.571396,397.858490 
	C209.580902,398.161163 196.572418,398.200348 183.584595,397.845764 
	C178.739807,397.713470 177.865738,399.434509 177.881836,403.820862 
	C178.030914,444.479279 177.930374,485.138550 178.016815,525.797302 
	C178.029129,531.588989 178.377090,537.411743 179.051132,543.163696 
	C180.538818,555.858643 183.394012,568.277405 189.419495,579.635681 
	C192.799988,586.008118 197.134506,591.874451 200.918732,598.085083 
	C200.798248,598.201477 200.561691,598.438660 200.561691,598.438660 
z"/>
<path fill="#3D8ED9" opacity="1.000000" stroke="none" 
	d="
M324.928467,566.936340 
	C333.428040,554.110046 336.168915,539.777588 336.150238,524.668091 
	C336.099945,484.022888 336.122437,443.377625 336.116119,402.732391 
	C336.115814,400.759796 336.116089,398.787201 336.116089,396.414398 
	C353.932648,396.414398 371.320953,396.414398 389.116333,396.414398 
	C389.211151,397.776917 389.399872,399.223602 389.399689,400.670319 
	C389.394806,442.315002 389.406708,483.959747 389.333435,525.604370 
	C389.302704,543.079834 387.127380,560.274780 379.619843,576.224792 
	C376.182556,583.527466 371.204773,590.104980 366.534668,597.077393 
	C366.143738,597.143433 365.930908,596.943665 365.995667,596.602173 
	C367.905975,593.721436 369.890198,591.270630 371.574707,588.628784 
	C383.163513,570.454041 387.504150,550.031250 387.820007,529.017578 
	C388.451080,487.036865 387.943634,445.039825 388.106293,403.050262 
	C388.123260,398.671875 386.574768,397.824707 382.625000,397.889008 
	C369.631531,398.100647 356.626801,398.184357 343.638367,397.850983 
	C338.903046,397.729462 337.853821,399.273407 337.872162,403.762299 
	C338.036377,443.918884 338.230835,484.079376 337.780304,524.231567 
	C337.672211,533.865784 335.899506,543.651978 333.525635,553.022034 
	C332.233337,558.122803 328.070251,562.496277 325.133911,567.132080 
	C325.065796,567.066406 324.928467,566.936340 324.928467,566.936340 
z"/>
<path fill="#328ADC" opacity="1.000000" stroke="none" 
	d="
M290.331299,465.528442 
	C280.569153,459.320831 270.274445,455.945862 259.059387,455.255157 
	C257.744507,455.174194 256.503296,453.897430 255.227921,453.175049 
	C256.664124,452.444031 258.136292,451.015656 259.531097,451.087524 
	C277.669189,452.022278 293.018860,459.300262 305.288605,472.569427 
	C316.510468,484.705383 322.725250,499.191498 323.401764,515.824463 
	C323.463226,517.335510 322.314880,518.895691 321.728363,520.433044 
	C320.840973,518.952515 319.285645,517.523560 319.166901,515.983765 
	C317.527313,494.723206 308.110870,477.961182 290.331299,465.528442 
z"/>
<path fill="#1A8CF4" opacity="1.000000" stroke="none" 
	d="
M262.768738,529.134399 
	C254.524200,531.165039 248.791016,528.749634 246.203796,522.446838 
	C243.991501,517.057434 246.217972,510.191162 251.174561,507.117096 
	C256.934692,503.544708 264.567688,505.342346 268.253204,511.139252 
	C272.196442,517.341553 270.176453,524.400330 262.768738,529.134399 
z"/>
<path fill="#328ADC" opacity="1.000000" stroke="none" 
	d="
M305.945892,511.832703 
	C306.142944,514.069580 306.556976,515.927551 306.326263,517.701721 
	C306.191833,518.735413 305.024811,519.634766 304.322327,520.594543 
	C303.573486,519.646667 302.401123,518.799377 302.148132,517.733704 
	C300.963440,512.743774 300.726898,507.421997 298.886108,502.713501 
	C291.988190,485.069275 279.019623,474.904175 260.002197,472.815796 
	C259.506134,472.761292 258.913330,472.900665 258.525665,472.674896 
	C257.357239,471.994324 256.267914,471.177887 255.147736,470.414429 
	C256.445038,469.690704 257.788208,468.287598 259.030975,468.371490 
	C262.659058,468.616486 266.395050,469.005676 269.826416,470.135162 
	C289.939117,476.755646 302.046082,490.514984 305.945892,511.832703 
z"/>
<path fill="#3E7DBA" opacity="1.000000" stroke="none" 
	d="
M808.200439,362.759491 
	C801.610107,375.516296 804.320618,389.529907 804.078857,403.156525 
	C803.917236,412.266052 803.894409,421.505035 805.215027,430.479218 
	C806.622559,440.043915 815.154846,446.074982 824.868774,446.078430 
	C850.349670,446.087463 875.831177,445.983612 901.310913,446.155365 
	C907.232910,446.195282 912.895020,445.742340 918.609924,443.012329 
	C914.405701,444.593445 909.845276,447.519257 905.237488,447.595856 
	C878.756104,448.036041 852.263000,447.891693 825.774902,447.757233 
	C812.207520,447.688385 803.070374,438.346222 802.984680,424.698303 
	C802.885376,408.872284 802.576233,393.030701 803.180115,377.227295 
	C803.364319,372.407593 806.263062,367.691650 808.200439,362.759491 
z"/>
<path fill="#3D8ED9" opacity="1.000000" stroke="none" 
	d="
M356.410278,607.416138 
	C347.465729,616.292847 336.526703,622.010986 324.700867,625.508301 
	C291.012177,635.471497 257.829773,634.777405 225.741119,618.999817 
	C225.147720,618.708069 224.601715,618.319824 223.919556,617.599548 
	C223.805527,617.222473 224.037857,616.947388 224.393433,617.002930 
	C244.089066,626.894470 264.664551,630.610840 286.258240,630.098450 
	C306.281067,629.623291 325.380981,625.981812 342.783997,615.608154 
	C347.293793,612.919861 351.573242,609.845215 356.070618,607.065918 
	C356.182739,607.183716 356.410278,607.416138 356.410278,607.416138 
z"/>
<path fill="#3E7DBA" opacity="1.000000" stroke="none" 
	d="
M923.734497,438.142639 
	C928.982971,417.103638 925.100769,395.492859 925.915466,374.074982 
	C926.274597,364.634338 915.349976,356.025360 904.439087,356.004028 
	C879.996277,355.956207 855.553345,355.994263 831.110474,355.976868 
	C829.292114,355.975555 827.473877,355.810669 825.327026,355.472076 
	C841.309082,355.127350 857.619629,355.008545 873.930420,354.945801 
	C884.587524,354.904785 895.245605,354.870911 905.902039,354.968506 
	C918.076172,355.079987 927.580444,364.086060 927.801514,376.322021 
	C928.102295,392.968536 928.117920,409.630463 927.703247,426.272034 
	C927.605591,430.194183 925.300171,434.061371 923.734497,438.142639 
z"/>
<path fill="#328ADC" opacity="1.000000" stroke="none" 
	d="
M260.568634,490.215088 
	C259.338989,490.080017 258.334595,490.271027 257.720520,489.867706 
	C256.766235,489.240875 256.077515,488.209778 255.276230,487.350037 
	C256.165894,486.749176 256.986908,485.854340 257.963623,485.626221 
	C259.044006,485.373871 260.277130,485.663239 261.426208,485.834351 
	C276.162628,488.028992 288.157227,500.851685 289.139038,515.742310 
	C289.241364,517.294678 287.874176,518.944031 287.188782,520.548340 
	C286.439240,519.088623 285.194214,517.686096 285.017883,516.160156 
	C283.490631,502.942505 274.535645,493.200714 260.568634,490.215088 
z"/>
<path fill="#328ADC" opacity="1.000000" stroke="none" 
	d="
M815.336670,535.940308 
	C815.979858,534.554321 816.684814,532.785339 817.955688,531.649597 
	C830.100342,520.796204 837.107910,506.955750 839.490112,491.221527 
	C840.929626,481.713898 840.053345,471.823486 839.711365,462.122925 
	C839.672913,461.031860 836.413513,459.370911 834.513611,459.155060 
	C828.450378,458.466400 822.160400,459.063416 816.276794,457.743042 
	C812.027405,456.789459 808.285889,453.572815 804.303772,451.000671 
	C813.571289,457.456818 824.209900,458.497345 835.184753,457.596985 
	C839.465881,457.245819 840.896423,458.748657 841.385132,462.971069 
	C844.688477,491.510040 838.248779,516.501282 815.336670,535.940308 
z"/>
<path fill="#3D8ED9" opacity="1.000000" stroke="none" 
	d="
M249.075760,574.915527 
	C265.812164,585.964172 283.934662,587.134644 302.666443,581.798950 
	C307.667725,580.374390 312.158997,577.159363 317.318634,574.754639 
	C317.752838,574.742981 318.014435,575.015320 317.854004,575.315613 
	C314.216858,577.754639 310.962830,580.458069 307.224091,581.932373 
	C292.557159,587.716003 277.416992,587.632507 262.502716,583.405090 
	C257.558716,582.003723 253.350052,578.008240 248.873154,575.128235 
	C248.941116,575.057739 249.075760,574.915527 249.075760,574.915527 
z"/>
<path fill="#328ADC" opacity="1.000000" stroke="none" 
	d="
M799.003052,444.618469 
	C792.624084,439.217285 791.360413,431.794647 792.472290,423.361237 
	C793.029541,430.626923 794.594116,437.851532 799.003052,444.618469 
z"/>
<path fill="#3E7DBA" opacity="1.000000" stroke="none" 
	d="
M821.693481,355.348969 
	C818.487183,357.134033 814.908203,358.854797 810.958618,360.533997 
	C814.165649,358.756500 817.743286,357.020569 821.693481,355.348969 
z"/>
<path fill="#3D8ED9" opacity="1.000000" stroke="none" 
	d="
M318.593842,573.588623 
	C320.065216,572.037231 321.536560,570.485840 323.404236,568.878357 
	C323.800598,568.822266 324.039917,569.029968 323.986603,569.367554 
	C322.298157,571.148315 320.662994,572.591492 318.919983,573.922546 
	C318.812103,573.810425 318.593842,573.588623 318.593842,573.588623 
z"/>
<path fill="#3D8ED9" opacity="1.000000" stroke="none" 
	d="
M206.899124,605.110229 
	C205.496948,603.770508 204.094772,602.430847 202.696808,600.680969 
	C202.701004,600.270813 203.009399,599.991028 203.302246,600.139526 
	C204.793762,601.794617 205.992432,603.301147 207.117859,604.883057 
	C207.044601,604.958496 206.899124,605.110229 206.899124,605.110229 
z"/>
<path fill="#3E7DBA" opacity="1.000000" stroke="none" 
	d="
M919.306091,442.911621 
	C920.224548,441.451172 921.464966,439.916046 923.053528,438.389648 
	C922.143799,439.877899 920.885925,441.357422 919.306091,442.911621 
z"/>
<path fill="#3D8ED9" opacity="1.000000" stroke="none" 
	d="
M218.552612,614.386841 
	C217.123978,613.465576 215.695343,612.544312 214.160828,611.283447 
	C214.054962,610.943970 214.196259,610.800598 214.510498,610.895935 
	C216.225723,611.982239 217.626709,612.973206 218.909698,614.070679 
	C218.791687,614.177246 218.552612,614.386841 218.552612,614.386841 
z"/>
<path fill="#3D8ED9" opacity="1.000000" stroke="none" 
	d="
M223.688049,617.358887 
	C222.031662,616.633789 220.492767,615.772339 218.753235,614.648865 
	C218.552612,614.386841 218.791687,614.177246 219.240814,614.118530 
	C221.139252,615.022278 222.588562,615.984802 224.037872,616.947388 
	C224.037857,616.947388 223.805527,617.222473 223.688049,617.358887 
z"/>
<path fill="#328ADC" opacity="1.000000" stroke="none" 
	d="
M805.338745,542.997559 
	C806.194397,542.065125 807.381042,541.097168 808.916260,540.198486 
	C808.066467,541.165894 806.868042,542.063965 805.338745,542.997559 
z"/>
<path fill="#328ADC" opacity="1.000000" stroke="none" 
	d="
M809.530518,540.248413 
	C810.330811,539.296082 811.461060,538.284302 812.942627,537.252686 
	C812.149414,538.218262 811.005005,539.203613 809.530518,540.248413 
z"/>
<path fill="#3D8ED9" opacity="1.000000" stroke="none" 
	d="
M213.984314,611.015625 
	C212.918320,610.367432 211.922989,609.647461 210.881485,608.546204 
	C210.835312,608.164856 211.044464,607.945435 211.369156,608.000732 
	C212.527985,608.970886 213.362122,609.885742 214.196259,610.800598 
	C214.196259,610.800598 214.054962,610.943970 213.984314,611.015625 
z"/>
<path fill="#3D8ED9" opacity="1.000000" stroke="none" 
	d="
M208.476151,606.631653 
	C208.029999,606.294312 207.583832,605.956909 207.018402,605.364868 
	C206.899124,605.110229 207.044601,604.958496 207.386215,604.966064 
	C208.154999,605.312317 208.582184,605.651123 208.868408,606.143982 
	C208.727448,606.298096 208.476151,606.631653 208.476151,606.631653 
z"/>
<path fill="#328ADC" opacity="1.000000" stroke="none" 
	d="
M813.514771,537.284424 
	C813.609253,536.899719 813.998535,536.470703 814.708557,536.027771 
	C814.622742,536.422607 814.216125,536.831299 813.514771,537.284424 
z"/>
<path fill="#328ADC" opacity="1.000000" stroke="none" 
	d="
M800.320312,446.432068 
	C799.934937,446.342957 799.491882,445.965759 799.047607,445.260376 
	C799.451782,445.336121 799.857178,445.740051 800.320312,446.432068 
z"/>
<path fill="#3D8ED9" opacity="1.000000" stroke="none" 
	d="
M247.437988,573.568115 
	C247.894562,573.859131 248.351135,574.150208 248.941727,574.678345 
	C249.075760,574.915527 248.941116,575.057739 248.603882,575.046997 
	C247.836807,574.698975 247.406967,574.361694 247.092728,573.910767 
	C247.208328,573.797058 247.437988,573.568115 247.437988,573.568115 
z"/>
<path fill="#3D8ED9" opacity="1.000000" stroke="none" 
	d="
M323.681213,568.718018 
	C323.856934,568.148010 324.152039,567.682251 324.687805,567.076416 
	C324.928467,566.936340 325.065796,567.066406 325.052490,567.400513 
	C324.706055,568.166382 324.372955,568.598145 324.039917,569.029907 
	C324.039917,569.029968 323.800598,568.822266 323.681213,568.718018 
z"/>
<path fill="#3D8ED9" opacity="1.000000" stroke="none" 
	d="
M363.555237,600.509949 
	C363.352448,600.783264 363.149658,601.056580 362.606873,601.310425 
	C362.266937,601.291016 361.986389,600.986328 362.097443,600.769897 
	C362.407532,600.283386 362.665283,600.092773 363.121582,600.117554 
	C363.261383,600.253479 363.555237,600.509949 363.555237,600.509949 
z"/>
<path fill="#3D8ED9" opacity="1.000000" stroke="none" 
	d="
M362.394348,601.454224 
	C362.369019,601.901917 362.171814,602.151245 361.598999,602.328979 
	C361.267853,602.292542 360.987274,601.987061 361.098724,601.770630 
	C361.409729,601.284119 361.668457,601.094788 361.986389,600.986328 
	C361.986389,600.986328 362.266937,601.291016 362.394348,601.454224 
z"/>
<path fill="#3D8ED9" opacity="1.000000" stroke="none" 
	d="
M364.505493,599.486511 
	C364.384918,599.788025 364.198608,600.041138 363.750885,600.377808 
	C363.555237,600.509949 363.261383,600.253479 363.233459,599.901733 
	C363.404907,599.280701 363.662476,599.090027 364.107849,599.107422 
	C364.237488,599.236877 364.505493,599.486511 364.505493,599.486511 
z"/>
<path fill="#3D8ED9" opacity="1.000000" stroke="none" 
	d="
M365.436035,598.437683 
	C365.333862,598.750671 365.156494,599.012817 364.704712,599.355286 
	C364.505493,599.486511 364.237488,599.236877 364.219757,598.892456 
	C364.399963,598.280518 364.653595,598.085510 365.080597,598.082153 
	C365.198273,598.201416 365.436035,598.437683 365.436035,598.437683 
z"/>
<path fill="#3D8ED9" opacity="1.000000" stroke="none" 
	d="
M202.534653,600.395996 
	C202.092728,600.364868 201.857361,600.161926 201.696640,599.583130 
	C201.731110,599.254028 202.011902,598.988220 202.228241,599.100098 
	C202.714417,599.412598 202.902695,599.672241 203.009399,599.991028 
	C203.009399,599.991028 202.701004,600.270813 202.534653,600.395996 
z"/>
<path fill="#328ADC" opacity="1.000000" stroke="none" 
	d="
M801.242554,447.492065 
	C800.977051,447.590454 800.645691,447.426117 800.306885,446.963684 
	C800.591858,446.853455 800.884216,447.041412 801.242554,447.492065 
z"/>
<path fill="#3D8ED9" opacity="1.000000" stroke="none" 
	d="
M361.395111,602.456360 
	C361.368958,602.904114 361.171448,603.153076 360.598785,603.329956 
	C360.267731,603.292908 359.986969,602.986877 360.098694,602.770630 
	C360.410339,602.284424 360.669281,602.095337 360.987274,601.987061 
	C360.987274,601.987061 361.267853,602.292542 361.395111,602.456360 
z"/>
<path fill="#3D8ED9" opacity="1.000000" stroke="none" 
	d="
M360.394897,603.457031 
	C360.368011,603.905090 360.169891,604.153931 359.596680,604.329651 
	C359.265656,604.291626 358.985870,603.985718 359.097870,603.769653 
	C359.410034,603.283936 359.669067,603.095032 359.986969,602.986877 
	C359.986969,602.986877 360.267731,603.292908 360.394897,603.457031 
z"/>
<path fill="#3D8ED9" opacity="1.000000" stroke="none" 
	d="
M359.391968,604.455994 
	C359.361786,604.895386 359.160065,605.131897 358.582855,605.297974 
	C358.252533,605.266113 357.981323,604.980957 358.094757,604.765869 
	C358.409119,604.282288 358.668365,604.093933 358.985870,603.985718 
	C358.985870,603.985718 359.265656,604.291626 359.391968,604.455994 
z"/>
<path fill="#3D8ED9" opacity="1.000000" stroke="none" 
	d="
M358.379639,605.416321 
	C358.357788,605.852051 358.156219,606.093689 357.569702,606.268005 
	C357.237427,606.244507 356.978394,605.978027 357.091980,605.763184 
	C357.406281,605.280090 357.664886,605.091003 357.981323,604.980957 
	C357.981323,604.980957 358.252533,605.266113 358.379639,605.416321 
z"/>
<path fill="#3D8ED9" opacity="1.000000" stroke="none" 
	d="
M209.519119,607.501831 
	C209.224762,607.392395 208.970917,607.222473 208.616882,606.811829 
	C208.476151,606.631653 208.727448,606.298096 209.085358,606.253723 
	C209.713409,606.406494 209.907486,606.661499 209.896729,607.104187 
	C209.767960,607.233948 209.519119,607.501831 209.519119,607.501831 
z"/>
<path fill="#3D8ED9" opacity="1.000000" stroke="none" 
	d="
M357.361206,606.383118 
	C357.330658,606.808289 357.116272,607.039124 356.626099,607.315186 
	C356.410278,607.416138 356.182739,607.183716 356.193115,606.858765 
	C356.407715,606.273193 356.666016,606.087952 356.978394,605.978027 
	C356.978394,605.978027 357.237427,606.244507 357.361206,606.383118 
z"/>
<path fill="#3D8ED9" opacity="1.000000" stroke="none" 
	d="
M210.729691,608.273560 
	C210.304443,608.294983 210.029526,608.132202 209.659210,607.697876 
	C209.519119,607.501831 209.767960,607.233948 210.111542,607.213867 
	C210.721664,607.389343 210.918106,607.639893 211.044464,607.945435 
	C211.044464,607.945435 210.835312,608.164856 210.729691,608.273560 
z"/>
<path fill="#3E7DBA" opacity="1.000000" stroke="none" 
	d="
M809.181885,361.711609 
	C809.291626,361.940552 809.220947,362.243927 808.884277,362.495850 
	C808.646179,362.166809 808.773865,361.947388 809.181885,361.711609 
z"/>
<path fill="#3E7DBA" opacity="1.000000" stroke="none" 
	d="
M810.244080,360.689178 
	C810.335083,360.928528 810.239807,361.226715 809.884155,361.450134 
	C809.677307,361.103210 809.822021,360.894073 810.244080,360.689178 
z"/>
<path fill="#328ADC" opacity="1.000000" stroke="none" 
	d="
M804.249512,450.430115 
	C803.989075,450.553314 803.646179,450.419434 803.268433,449.989899 
	C803.544800,449.853851 803.855957,450.013458 804.249512,450.430115 
z"/>
<path fill="#328ADC" opacity="1.000000" stroke="none" 
	d="
M803.226685,449.493622 
	C802.966003,449.600922 802.631653,449.444183 802.266235,448.993225 
	C802.541138,448.875854 802.847107,449.052704 803.226685,449.493622 
z"/>
<path fill="#328ADC" opacity="1.000000" stroke="none" 
	d="
M802.227600,448.493408 
	C801.966797,448.599823 801.632629,448.442413 801.268799,447.990417 
	C801.544189,447.873779 801.849182,448.051697 802.227600,448.493408 
z"/>
<path fill="#3D8ED9" opacity="1.000000" stroke="none" 
	d="
M201.582382,599.377502 
	C201.156952,599.343018 200.933105,599.129639 200.661911,598.649780 
	C200.561691,598.438660 200.798248,598.201477 201.128143,598.205322 
	C201.720871,598.413269 201.905487,598.672974 202.011902,598.988220 
	C202.011902,598.988220 201.731110,599.254028 201.582382,599.377502 
z"/>
<path fill="#3D8ED9" opacity="1.000000" stroke="none" 
	d="
M242.397125,568.629883 
	C242.823441,568.660645 243.051025,568.875488 243.203430,569.480713 
	C243.186569,569.809387 242.970627,570.028809 242.758911,569.910278 
	C242.282318,569.587646 242.096191,569.327332 241.988800,569.010681 
	C241.988800,569.010681 242.256714,568.752075 242.397125,568.629883 
z"/>
<path fill="#3D8ED9" opacity="1.000000" stroke="none" 
	d="
M243.294739,569.699829 
	C243.722107,569.706848 243.972519,569.908752 244.151794,570.521179 
	C244.149506,570.846313 243.956818,571.042358 243.746292,570.922729 
	C243.271851,570.600159 243.083481,570.342041 242.970627,570.028809 
	C242.970627,570.028809 243.186569,569.809387 243.294739,569.699829 
z"/>
<path fill="#3D8ED9" opacity="1.000000" stroke="none" 
	d="
M244.245071,570.747559 
	C244.671326,570.739014 244.936966,570.923035 245.142532,571.524719 
	C245.147507,571.848450 244.953613,572.045593 244.743881,571.925903 
	C244.271820,571.604370 244.079376,571.349792 243.956818,571.042358 
	C243.956818,571.042358 244.149506,570.846313 244.245071,570.747559 
z"/>
<path fill="#3D8ED9" opacity="1.000000" stroke="none" 
	d="
M245.243713,571.749146 
	C245.669464,571.739014 245.936935,571.919922 246.149841,572.515869 
	C246.157288,572.839172 245.958481,573.041260 245.746613,572.924622 
	C245.270462,572.607666 245.076752,572.353577 244.953613,572.045593 
	C244.953613,572.045593 245.147507,571.848450 245.243713,571.749146 
z"/>
<path fill="#3D8ED9" opacity="1.000000" stroke="none" 
	d="
M246.256042,572.737549 
	C246.683792,572.720886 246.960297,572.891174 247.311127,573.357422 
	C247.437988,573.568115 247.208328,573.797058 246.877899,573.798340 
	C246.280518,573.601746 246.084198,573.348938 245.958481,573.041260 
	C245.958481,573.041260 246.157288,572.839172 246.256042,572.737549 
z"/>
<path fill="#3D8ED9" opacity="1.000000" stroke="none" 
	d="
M317.629211,574.600220 
	C317.664764,574.175049 317.882904,573.949646 318.376923,573.684937 
	C318.593842,573.588623 318.812103,573.810425 318.803040,574.134521 
	C318.591370,574.724365 318.331543,574.909973 318.014435,575.015320 
	C318.014435,575.015320 317.752838,574.742981 317.629211,574.600220 
z"/>
<path fill="#3D8ED9" opacity="1.000000" stroke="none" 
	d="
M366.249359,597.244202 
	C366.271484,597.673218 366.103668,597.950439 365.643799,598.307129 
	C365.436035,598.437683 365.198273,598.201416 365.192993,597.869995 
	C365.383514,597.275391 365.631226,597.077087 365.930908,596.943665 
	C365.930908,596.943665 366.143738,597.143433 366.249359,597.244202 
z"/>
<path fill="#328ADC" opacity="1.000000" stroke="none" 
	d="
M703.937561,440.965027 
	C705.251648,440.313171 706.559998,439.108398 707.880737,439.094696 
	C721.356262,438.954834 734.854065,438.566162 748.302979,439.180603 
	C755.918701,439.528564 763.912537,439.673340 770.836975,444.667114 
	C770.971863,445.042450 770.819580,445.220947 770.446655,445.165771 
	C766.415527,444.027161 762.781189,442.106293 759.095276,442.001892 
	C740.824707,441.484222 722.540527,441.446014 704.181458,441.169006 
	C704.101746,441.099152 703.937561,440.965027 703.937561,440.965027 
z"/>
<path fill="#328ADC" opacity="1.000000" stroke="none" 
	d="
M770.101013,508.105774 
	C766.966614,509.399200 763.918823,511.484283 760.681763,511.838074 
	C750.856201,512.912048 740.965454,513.505554 731.084717,513.919678 
	C723.630615,514.232056 716.151978,514.044312 708.686584,513.928040 
	C707.173828,513.904480 705.671570,513.204163 704.134705,512.354126 
	C704.104919,511.892517 704.265076,511.744110 704.709229,511.823914 
	C717.262085,511.945496 729.372864,511.864777 741.478882,512.067810 
	C751.186523,512.230652 760.668335,511.295258 769.854126,507.813599 
	C769.935425,507.911865 770.101013,508.105804 770.101013,508.105774 
z"/>
<path fill="#328ADC" opacity="1.000000" stroke="none" 
	d="
M704.022339,511.963928 
	C703.622070,510.798615 703.030579,509.562622 703.027466,508.325104 
	C702.972961,486.721863 702.987244,465.118469 703.008301,443.515137 
	C703.008972,442.870178 703.244995,442.225494 703.654419,441.272858 
	C703.937561,440.965027 704.101746,441.099152 704.211121,441.620056 
	C704.302002,465.342041 704.283569,488.543060 704.265137,511.744110 
	C704.265076,511.744110 704.104919,511.892517 704.022339,511.963928 
z"/>
<path fill="#328ADC" opacity="1.000000" stroke="none" 
	d="
M786.137268,459.869690 
	C787.400146,462.463745 789.665161,465.033386 789.729126,467.656647 
	C789.890259,474.268127 789.059387,480.903809 788.183838,487.667358 
	C787.741638,487.804962 787.437012,487.570465 787.512451,487.163452 
	C789.888489,477.694794 788.846252,468.857117 785.889221,460.083160 
	C785.972778,460.013031 786.137268,459.869690 786.137268,459.869690 
z"/>
<path fill="#328ADC" opacity="1.000000" stroke="none" 
	d="
M773.066650,445.910034 
	C774.022522,446.359253 774.978333,446.808502 775.931030,447.673828 
	C775.927795,448.089905 775.768250,448.263397 775.473389,448.181854 
	C774.371094,447.496735 773.563599,446.893127 772.834412,446.195190 
	C772.912720,446.100891 773.066650,445.910004 773.066650,445.910034 
z"/>
<path fill="#328ADC" opacity="1.000000" stroke="none" 
	d="
M783.140076,497.116669 
	C782.677246,498.059174 782.214478,499.001709 781.341187,499.944946 
	C780.930664,499.945709 780.759399,499.783295 780.854858,499.494263 
	C781.610657,498.449585 782.270935,497.693939 782.982971,496.983429 
	C783.034668,497.028595 783.140076,497.116669 783.140076,497.116669 
z"/>
<path fill="#328ADC" opacity="1.000000" stroke="none" 
	d="
M783.148071,454.861786 
	C783.771545,455.670685 784.395020,456.479584 784.981812,457.668243 
	C784.945129,458.048004 784.775146,458.187836 784.522827,458.011658 
	C783.784363,456.942505 783.298218,456.049561 782.896484,455.083344 
	C782.980835,455.010040 783.148071,454.861786 783.148071,454.861786 
z"/>
<path fill="#328ADC" opacity="1.000000" stroke="none" 
	d="
M775.142639,505.152588 
	C774.329712,505.772339 773.516846,506.392090 772.316223,506.963989 
	C771.928528,506.916138 771.774109,506.727661 771.962891,506.482971 
	C773.058899,505.774048 773.966064,505.309784 774.940247,504.922668 
	C775.007202,504.999756 775.142639,505.152588 775.142639,505.152588 
z"/>
<path fill="#328ADC" opacity="1.000000" stroke="none" 
	d="
M779.107178,502.089020 
	C778.629028,502.708527 778.150879,503.328003 777.241943,503.880066 
	C776.811279,503.812683 776.569641,503.566376 776.730103,503.322205 
	C777.524475,502.642761 778.158386,502.207489 778.869690,501.852722 
	C778.947083,501.933228 779.107178,502.089020 779.107178,502.089020 
z"/>
<path fill="#328ADC" opacity="1.000000" stroke="none" 
	d="
M772.004578,507.011292 
	C771.608887,507.405487 771.137146,507.704498 770.383179,508.054657 
	C770.101013,508.105804 769.935425,507.911865 770.041382,507.593994 
	C770.689636,507.093292 771.231873,506.910492 771.774109,506.727661 
	C771.774109,506.727661 771.928528,506.916138 772.004578,507.011292 
z"/>
<path fill="#328ADC" opacity="1.000000" stroke="none" 
	d="
M777.110046,448.866455 
	C777.643616,449.071594 778.177185,449.276733 778.748169,449.868011 
	C778.785645,450.254150 778.526001,450.555206 778.280457,450.423492 
	C777.652100,449.901642 777.269287,449.511505 776.943115,449.058350 
	C776.999878,448.995331 777.110046,448.866455 777.110046,448.866455 
z"/>
<path fill="#328ADC" opacity="1.000000" stroke="none" 
	d="
M776.930786,503.937073 
	C776.599548,504.382080 776.148682,504.702698 775.420227,505.087952 
	C775.142639,505.152588 775.007202,504.999756 775.079895,504.686951 
	C775.624939,504.104889 776.097290,503.835632 776.569641,503.566345 
	C776.569641,503.566376 776.811279,503.812683 776.930786,503.937073 
z"/>
<path fill="#328ADC" opacity="1.000000" stroke="none" 
	d="
M785.126648,494.094086 
	C784.929260,494.636932 784.731873,495.179779 784.210510,495.815216 
	C783.886475,495.907806 783.699524,495.740997 783.763184,495.463867 
	C784.169983,494.751678 784.513184,494.316650 784.923340,493.935455 
	C784.990295,493.989319 785.126648,494.094086 785.126648,494.094086 
z"/>
<path fill="#328ADC" opacity="1.000000" stroke="none" 
	d="
M786.125732,492.093842 
	C785.936523,492.632446 785.747314,493.171051 785.342407,493.901855 
	C785.126648,494.094086 784.990295,493.989319 784.960571,493.648193 
	C785.245117,492.837891 785.559387,492.368713 785.936157,491.948700 
	C785.998718,491.997864 786.125732,492.093842 786.125732,492.093842 
z"/>
<path fill="#328ADC" opacity="1.000000" stroke="none" 
	d="
M787.114868,490.083862 
	C786.931641,490.627136 786.748474,491.170410 786.345520,491.903748 
	C786.125732,492.093842 785.998718,491.997864 785.956055,491.655151 
	C786.205444,490.819397 786.497559,490.326416 786.870483,489.896667 
	C786.951294,489.959930 787.114807,490.083862 787.114868,490.083862 
z"/>
<path fill="#328ADC" opacity="1.000000" stroke="none" 
	d="
M787.893188,487.923157 
	C787.878296,488.591064 787.711792,489.140778 787.330078,489.887177 
	C787.114807,490.083862 786.951294,489.959930 786.882751,489.597839 
	C787.021851,488.680695 787.229431,488.125580 787.437012,487.570465 
	C787.437012,487.570465 787.741638,487.804962 787.893188,487.923157 
z"/>
<path fill="#328ADC" opacity="1.000000" stroke="none" 
	d="
M771.049072,444.954102 
	C771.653442,445.065277 772.180603,445.264801 772.887207,445.687164 
	C773.066650,445.910004 772.912720,446.100891 772.553589,446.139465 
	C771.736145,445.858978 771.277832,445.539948 770.819580,445.220947 
	C770.819580,445.220947 770.971863,445.042450 771.049072,444.954102 
z"/>
<path fill="#328ADC" opacity="1.000000" stroke="none" 
	d="
M785.031189,457.979431 
	C785.417419,458.378357 785.717590,458.845917 786.077515,459.591583 
	C786.137268,459.869690 785.972778,460.013031 785.664978,459.903320 
	C785.163208,459.258362 784.969177,458.723083 784.775146,458.187836 
	C784.775146,458.187836 784.945129,458.048004 785.031189,457.979431 
z"/>
<path fill="#328ADC" opacity="1.000000" stroke="none" 
	d="
M782.042419,452.953827 
	C782.368164,453.403595 782.693909,453.853363 783.083862,454.582458 
	C783.148071,454.861786 782.980835,455.010040 782.656006,454.948547 
	C782.015564,454.437225 781.699951,453.987396 781.549377,453.392212 
	C781.714478,453.246887 782.042419,452.953827 782.042419,452.953827 
z"/>
<path fill="#328ADC" opacity="1.000000" stroke="none" 
	d="
M776.010254,448.005707 
	C776.386047,448.049438 776.636597,448.235107 776.977173,448.672485 
	C777.110046,448.866455 776.999878,448.995331 776.703003,448.994537 
	C776.083740,448.846161 775.871094,448.602722 775.768250,448.263397 
	C775.768250,448.263397 775.927795,448.089905 776.010254,448.005707 
z"/>
<path fill="#328ADC" opacity="1.000000" stroke="none" 
	d="
M781.047058,451.945404 
	C781.356995,452.067017 781.610352,452.262085 781.924805,452.742249 
	C782.042419,452.953827 781.714478,453.246887 781.373657,453.243896 
	C780.813599,453.020477 780.643982,452.766815 780.655151,452.346741 
	C780.786316,452.213501 781.047058,451.945404 781.047058,451.945404 
z"/>
<path fill="#328ADC" opacity="1.000000" stroke="none" 
	d="
M778.916748,450.104675 
	C779.354736,450.079285 779.611084,450.270905 779.802307,450.872314 
	C779.787659,451.214539 779.522888,451.477844 779.323120,451.363342 
	C778.872742,451.062042 778.673645,450.830811 778.526001,450.555206 
	C778.526001,450.555206 778.785645,450.254150 778.916748,450.104675 
z"/>
<path fill="#328ADC" opacity="1.000000" stroke="none" 
	d="
M783.977661,495.993744 
	C783.950012,496.378815 783.769409,496.634277 783.333496,496.981384 
	C783.140076,497.116669 783.034668,497.028595 783.026978,496.736328 
	C783.246033,496.209747 783.472778,495.975372 783.699524,495.740997 
	C783.699524,495.740997 783.886475,495.907806 783.977661,495.993744 
z"/>
<path fill="#328ADC" opacity="1.000000" stroke="none" 
	d="
M781.013794,500.029419 
	C780.952454,500.404755 780.755188,500.654755 780.222412,500.903778 
	C779.939697,500.944458 779.783447,500.782440 779.873169,500.553711 
	C780.155334,500.037079 780.420837,499.856506 780.759399,499.783295 
	C780.759399,499.783295 780.930664,499.945709 781.013794,500.029419 
z"/>
<path fill="#328ADC" opacity="1.000000" stroke="none" 
	d="
M780.015991,501.027222 
	C779.949463,501.395447 779.753296,501.637878 779.305542,501.963135 
	C779.107178,502.089020 778.947083,501.933228 778.962280,501.624390 
	C779.174316,501.029297 779.442993,500.851593 779.783447,500.782440 
	C779.783447,500.782440 779.939697,500.944458 780.015991,501.027222 
z"/>
<path fill="#328ADC" opacity="1.000000" stroke="none" 
	d="
M779.920898,451.083679 
	C780.355591,451.080017 780.606384,451.273010 780.926819,451.738586 
	C781.047058,451.945404 780.786316,452.213501 780.450500,452.220734 
	C779.858032,452.024811 779.660767,451.774750 779.522888,451.477844 
	C779.522888,451.477844 779.787659,451.214539 779.920898,451.083679 
z"/>
<path fill="#F0FAFE" opacity="1.000000" stroke="none" 
	d="
M870.093262,411.992737 
	C870.092651,400.022522 870.092651,388.550476 870.092651,375.730621 
	C878.543945,376.357391 886.771057,376.517426 894.836670,377.741547 
	C899.373108,378.430023 902.107239,382.302643 902.924194,386.926788 
	C903.891357,392.400818 901.989380,396.743683 897.753113,399.159546 
	C899.982483,402.958557 903.123901,406.375031 904.060608,410.315521 
	C905.946533,418.249725 900.808594,425.100983 892.620605,425.803192 
	C885.382996,426.423889 878.049927,425.933167 870.093872,425.933167 
	C870.093872,421.356476 870.093872,416.923676 870.093262,411.992737 
M878.263855,415.282166 
	C877.861694,418.219147 878.932800,419.600311 882.089111,419.285370 
	C884.555664,419.039185 887.068542,419.277893 889.541565,419.071136 
	C893.701782,418.723328 895.686523,416.132263 895.930908,412.156860 
	C896.185059,408.022614 894.574829,404.712311 890.275635,404.103943 
	C886.467651,403.565125 882.523193,403.990997 878.260620,403.990997 
	C878.260620,407.755859 878.260620,411.047272 878.263855,415.282166 
M886.172974,396.790771 
	C892.553101,396.299774 895.136597,394.214386 894.915039,389.734467 
	C894.704529,385.478607 891.852234,383.355774 886.032654,383.204254 
	C883.604126,383.141022 881.172607,383.193726 878.577759,383.193726 
	C878.577759,387.968964 878.577759,392.158417 878.577759,396.791382 
	C881.049011,396.791382 883.170898,396.791382 886.172974,396.790771 
z"/>
<path fill="#F0FAFE" opacity="1.000000" stroke="none" 
	d="
M859.856567,384.491028 
	C860.391052,386.427734 860.781921,387.995667 861.243469,389.847412 
	C857.038574,390.376740 853.533020,391.478241 851.329956,386.524994 
	C849.583557,382.598419 845.462036,382.520813 841.702759,383.102081 
	C837.898376,383.690369 835.692139,386.376129 835.535156,389.975128 
	C835.208984,397.449341 835.021118,404.968201 835.483398,412.424866 
	C835.798645,417.511078 839.808655,420.140961 845.013123,419.833923 
	C850.113037,419.533051 852.732239,416.827515 853.028137,411.492188 
	C853.100647,410.184692 853.038940,408.869720 853.038940,407.056671 
	C849.863831,407.056671 846.950806,407.056671 843.696167,407.056671 
	C843.696167,404.644623 843.696167,402.729919 843.696167,400.421875 
	C849.228760,400.421875 854.789551,400.421875 861.347778,400.421875 
	C861.081543,405.709900 861.528076,411.246307 860.371216,416.424438 
	C858.658081,424.092133 851.427002,427.726044 841.708740,426.907013 
	C833.531006,426.217865 827.563416,421.024323 827.080811,413.155029 
	C826.592346,405.190857 826.645630,397.159607 827.035706,389.185852 
	C827.361023,382.533661 832.312256,377.567841 838.946106,376.127075 
	C847.924744,374.177032 855.421021,377.063080 859.856567,384.491028 
z"/>
<path fill="#1A8CF4" opacity="1.000000" stroke="none" 
	d="
M596.680176,491.703796 
	C590.497803,507.479980 584.418457,522.882751 578.487244,538.342346 
	C570.890259,558.143860 563.425720,577.996277 555.877197,597.816406 
	C552.647949,606.295532 549.547485,614.834473 545.925293,623.144287 
	C545.162842,624.893372 542.394958,626.819946 540.511597,626.861206 
	C526.357971,627.171143 512.192322,626.900818 498.035248,627.120178 
	C494.533112,627.174500 493.349792,625.293091 492.367401,622.708618 
	C486.838165,608.161926 481.399963,593.580261 475.800598,579.060791 
	C469.659668,563.136963 463.291168,547.300659 457.175995,531.367188 
	C446.668213,503.988434 436.330658,476.544373 425.822418,449.165833 
	C419.658112,433.105194 413.301147,417.118500 407.035217,401.096863 
	C406.746979,400.359833 406.501190,399.606232 406.022736,398.262390 
	C408.067871,398.146545 409.644989,397.981903 411.222382,397.979645 
	C425.382843,397.959412 439.544952,398.083954 453.702789,397.889343 
	C457.438049,397.838043 459.183563,398.921326 460.488373,402.626373 
	C467.920959,423.731293 475.768127,444.689667 483.342316,465.745361 
	C493.723022,494.603271 503.955109,523.514648 514.336670,552.372253 
	C515.666382,556.068481 517.510986,559.579468 519.117065,563.176270 
	C519.699463,563.086670 520.281860,562.997070 520.864319,562.907471 
	C523.117310,557.129333 525.482056,551.391785 527.600952,545.564880 
	C532.467041,532.183044 537.190063,518.749329 542.013733,505.351959 
	C549.309265,485.088928 556.623535,464.832581 563.963501,444.585602 
	C569.156189,430.261444 574.337891,415.932251 579.726868,401.681824 
	C580.293762,400.182678 582.217957,398.151428 583.529846,398.138550 
	C599.339722,397.983337 615.152954,398.161346 630.965210,398.265137 
	C631.104065,398.266052 631.241760,398.439636 632.457520,399.257202 
	C620.660339,429.769623 608.754700,460.562622 596.680176,491.703796 
z"/>
<path fill="#1A8CF5" opacity="1.000000" stroke="none" 
	d="
M365.995667,596.602173 
	C365.631226,597.077087 365.383514,597.275391 365.075317,597.750732 
	C364.653595,598.085510 364.399963,598.280518 364.090149,598.763000 
	C363.662476,599.090027 363.404907,599.280701 363.093689,599.765747 
	C362.665283,600.092773 362.407532,600.283386 362.097443,600.769897 
	C361.668457,601.094788 361.409729,601.284119 361.098724,601.770630 
	C360.669281,602.095337 360.410339,602.284424 360.098694,602.770630 
	C359.669067,603.095032 359.410034,603.283936 359.097870,603.769653 
	C358.668365,604.093933 358.409119,604.282288 358.094757,604.765869 
	C357.664886,605.091003 357.406281,605.280090 357.091980,605.763184 
	C356.666016,606.087952 356.407715,606.273193 356.080994,606.740967 
	C351.573242,609.845215 347.293793,612.919861 342.783997,615.608154 
	C325.380981,625.981812 306.281067,629.623291 286.258240,630.098450 
	C264.664551,630.610840 244.089066,626.894470 224.393433,617.002930 
	C222.588562,615.984802 221.139252,615.022278 219.358826,614.011963 
	C217.626709,612.973206 216.225723,611.982239 214.510498,610.895935 
	C213.362122,609.885742 212.527985,608.970886 211.369156,608.000732 
	C210.918106,607.639893 210.721664,607.389343 210.240326,607.084106 
	C209.907486,606.661499 209.713409,606.406494 209.226303,606.099609 
	C208.582184,605.651123 208.154999,605.312317 207.459473,604.890625 
	C205.992432,603.301147 204.793762,601.794617 203.302246,600.139526 
	C202.902695,599.672241 202.714417,599.412598 202.228241,599.100098 
	C201.905487,598.672974 201.720871,598.413269 201.248642,598.088989 
	C197.134506,591.874451 192.799988,586.008118 189.419495,579.635681 
	C183.394012,568.277405 180.538818,555.858643 179.051132,543.163696 
	C178.377090,537.411743 178.029129,531.588989 178.016815,525.797302 
	C177.930374,485.138550 178.030914,444.479279 177.881836,403.820862 
	C177.865738,399.434509 178.739807,397.713470 183.584595,397.845764 
	C196.572418,398.200348 209.580902,398.161163 222.571396,397.858490 
	C227.052704,397.754089 228.135803,399.120270 228.119278,403.483337 
	C227.960175,445.474762 227.722794,487.470459 228.199478,529.457092 
	C228.360565,543.644958 231.774338,557.374695 241.687073,568.854614 
	C242.096191,569.327332 242.282318,569.587646 242.758911,569.910278 
	C243.083481,570.342041 243.271851,570.600159 243.746292,570.922729 
	C244.079376,571.349792 244.271820,571.604370 244.743881,571.925903 
	C245.076752,572.353577 245.270462,572.607666 245.746613,572.924622 
	C246.084198,573.348938 246.280518,573.601746 246.762299,573.912109 
	C247.406967,574.361694 247.836807,574.698975 248.535919,575.117432 
	C253.350052,578.008240 257.558716,582.003723 262.502716,583.405090 
	C277.416992,587.632507 292.557159,587.716003 307.224091,581.932373 
	C310.962830,580.458069 314.216858,577.754639 317.854004,575.315613 
	C318.331543,574.909973 318.591370,574.724365 318.910919,574.246643 
	C320.662994,572.591492 322.298157,571.148315 323.986572,569.367554 
	C324.372955,568.598145 324.706055,568.166382 325.120575,567.466187 
	C328.070251,562.496277 332.233337,558.122803 333.525635,553.022034 
	C335.899506,543.651978 337.672211,533.865784 337.780304,524.231567 
	C338.230835,484.079376 338.036377,443.918884 337.872162,403.762299 
	C337.853821,399.273407 338.903046,397.729462 343.638367,397.850983 
	C356.626801,398.184357 369.631531,398.100647 382.625000,397.889008 
	C386.574768,397.824707 388.123260,398.671875 388.106293,403.050262 
	C387.943634,445.039825 388.451080,487.036865 387.820007,529.017578 
	C387.504150,550.031250 383.163513,570.454041 371.574707,588.628784 
	C369.890198,591.270630 367.905975,593.721436 365.995667,596.602173 
z"/>
<path fill="#FCFEFF" opacity="1.000000" stroke="none" 
	d="
M779.323120,451.363342 
	C779.660767,451.774750 779.858032,452.024811 780.319336,452.353973 
	C780.643982,452.766815 780.813599,453.020477 781.208618,453.389221 
	C781.699951,453.987396 782.015564,454.437225 782.571655,455.021851 
	C783.298218,456.049561 783.784363,456.942505 784.522827,458.011658 
	C784.969177,458.723083 785.163208,459.258362 785.581421,459.973450 
	C788.846252,468.857117 789.888489,477.694794 787.512451,487.163452 
	C787.229431,488.125580 787.021851,488.680695 786.802002,489.534607 
	C786.497559,490.326416 786.205444,490.819397 785.893433,491.605957 
	C785.559387,492.368713 785.245117,492.837891 784.893616,493.594330 
	C784.513184,494.316650 784.169983,494.751678 783.763184,495.463867 
	C783.472778,495.975372 783.246033,496.209747 782.975281,496.691162 
	C782.270935,497.693939 781.610657,498.449585 780.854858,499.494263 
	C780.420837,499.856506 780.155334,500.037079 779.873169,500.553711 
	C779.442993,500.851593 779.174316,501.029297 778.884888,501.543884 
	C778.158386,502.207489 777.524475,502.642761 776.730103,503.322205 
	C776.097290,503.835632 775.624939,504.104889 775.012939,504.609863 
	C773.966064,505.309784 773.058899,505.774048 771.962891,506.482971 
	C771.231873,506.910492 770.689636,507.093292 769.960144,507.495697 
	C760.668335,511.295258 751.186523,512.230652 741.478882,512.067810 
	C729.372864,511.864777 717.262085,511.945496 704.709229,511.823914 
	C704.283569,488.543060 704.302002,465.342041 704.290833,441.689941 
	C722.540527,441.446014 740.824707,441.484222 759.095276,442.001892 
	C762.781189,442.106293 766.415527,444.027161 770.446655,445.165771 
	C771.277832,445.539948 771.736145,445.858978 772.475220,446.233765 
	C773.563599,446.893127 774.371094,447.496735 775.473389,448.181854 
	C775.871094,448.602722 776.083740,448.846161 776.646301,449.057556 
	C777.269287,449.511505 777.652100,449.901642 778.280457,450.423492 
	C778.673645,450.830811 778.872742,451.062042 779.323120,451.363342 
z"/>
<path fill="#0A69C4" opacity="1.000000" stroke="none" 
	d="
M878.262207,414.810425 
	C878.260620,411.047272 878.260620,407.755859 878.260620,403.990997 
	C882.523193,403.990997 886.467651,403.565125 890.275635,404.103943 
	C894.574829,404.712311 896.185059,408.022614 895.930908,412.156860 
	C895.686523,416.132263 893.701782,418.723328 889.541565,419.071136 
	C887.068542,419.277893 884.555664,419.039185 882.089111,419.285370 
	C878.932800,419.600311 877.861694,418.219147 878.262207,414.810425 
z"/>
<path fill="#0A69C4" opacity="1.000000" stroke="none" 
	d="
M885.732910,396.791077 
	C883.170898,396.791382 881.049011,396.791382 878.577759,396.791382 
	C878.577759,392.158417 878.577759,387.968964 878.577759,383.193726 
	C881.172607,383.193726 883.604126,383.141022 886.032654,383.204254 
	C891.852234,383.355774 894.704529,385.478607 894.915039,389.734467 
	C895.136597,394.214386 892.553101,396.299774 885.732910,396.791077 
z"/>
</svg>