<svg xmlns="http://www.w3.org/2000/svg" xml:space="preserve" viewBox="80 85 780 780"><path fill="#1a8bf5" d="M792.71 419.97c.05.77.1 1.54-.16 3.01-1.19 8.81.07 16.24 6.52 22 0 0-.07.01-.04.31.46.68.9 1.05 1.35 1.43 0 0-.12.08-.1.31.37.4.7.56 1.03.72 0 0-.12.08-.07.3.4.4.73.55 1.06.7 0 0-.12.08-.06.31.4.38.73.54 1.06.7 0 0-.12.06-.06.3.4.36.75.5 1.1.63 0 0-.22.13-.12.4 4.07 2.48 7.8 5.7 12.06 6.65 5.88 1.32 12.17.73 18.23 1.42 1.9.21 5.16 1.87 5.2 2.96.34 9.7 1.22 19.6-.22 29.1-2.38 15.74-9.39 29.58-21.53 40.43-1.28 1.14-1.98 2.9-2.95 4.38 0 0-.01-.03-.32-.01-.7.45-1.08.88-1.47 1.3 0 0-.06-.11-.34-.08-1.42 1.04-2.55 2.06-3.68 3.07 0 0-.06-.17-.34-.17a41 41 0 0 0-3.85 2.9s0-.04-.37-.05c-1.32.27-2.34.4-3.2.84-16.12 8.46-33.47 11.23-51.44 11.17-13.16-.04-26.32 0-39.48 0-7.53 0-7.53 0-7.53 7.3 0 20-.09 39.98.07 59.97.03 3.7-1.02 4.88-4.79 4.83-13.49-.21-26.98-.26-40.47.01-4.48.1-5.92-1.03-5.91-5.75q.23-108.94.02-217.87c-.01-4.38 1.1-5.63 5.55-5.6 34.97.18 69.96-.25 104.93.35 8.76.15 17.52 3.12 26.15 5.31 1.48.38 2.93 3.23 3.3 5.14.7 3.68.63 7.52.87 11.28m-12.2 80.9c.25-.22.44-.47 1.24-.93.46-.94.93-1.88 1.78-3.1.24-.2.42-.46 1-1.12.2-.54.4-1.08 1.03-2.01.19-.54.38-1.08 1-2 .19-.54.37-1.08.99-2.02.16-.55.33-1.1 1.08-2.16.43-6.63 1.26-13.26 1.1-19.87-.06-2.63-2.33-5.2-3.71-8.35a9 9 0 0 1-1-2.02c-.62-.81-1.25-1.62-2-2.99-.33-.45-.65-.9-1.21-1.77-.2-.27-.45-.46-1-1-.2-.26-.45-.45-1-1-.2-.26-.46-.45-1.1-1.05-.53-.2-1.07-.4-1.87-1-.2-.24-.45-.43-.9-1.22a21 21 0 0 1-3.23-1.8c-.53-.2-1.06-.4-2-1.17-6.8-4.62-14.8-4.76-22.4-5.1-13.46-.62-26.95-.24-40.43-.1-1.32.02-2.63 1.22-4.5 2.5-.14.64-.37 1.28-.37 1.93q-.05 32.4.02 64.8c0 1.24.6 2.48 1.13 4.5 1.51.38 3.01 1.08 4.53 1.1 7.46.12 14.94.31 22.4 0 9.88-.41 19.77-1 29.6-2.08 3.23-.36 6.28-2.44 9.98-3.84.47-.3.94-.6 2.03-.99.82-.62 1.63-1.24 3-1.99.45-.32.9-.64 1.97-1.07.48-.62.96-1.24 1.83-2.11.25-.2.45-.44 1-.98"/><path fill="#0a69c4" d="M822.07 355.41c.73-.1 1.46-.2 2.89.01 2.51.4 4.33.56 6.15.56 24.44.01 48.89-.02 73.33.02 10.91.03 21.83 8.63 21.48 18.07-.82 21.42 3.06 43.03-2.46 64.26 0 0-.12-.04-.44 0a61 61 0 0 0-4.04 4.66s.02.01-.36.03c-5.72 2.72-11.39 3.18-17.3 3.14-25.49-.18-50.97-.07-76.45-.08-9.72 0-18.25-6.04-19.65-15.6-1.33-8.97-1.3-18.21-1.14-27.32.24-13.63-2.47-27.64 4.4-40.57 0 0 .1-.05.38-.04.36-.3.43-.6.5-.91 0 0 .12-.15.45-.13.43-.28.53-.58.62-.88 0 0 .1-.04.5-.05 3.98-1.73 7.56-3.45 11.14-5.17m48.02 57.08v13.44c7.96 0 15.3.5 22.53-.13 8.19-.7 13.33-7.55 11.44-15.48-.94-3.94-4.08-7.36-6.3-11.16 4.23-2.42 6.13-6.76 5.16-12.23-.81-4.63-3.55-8.5-8.08-9.19-8.07-1.22-16.3-1.38-24.75-2zm-10.38-28.37c-4.29-7.06-11.79-9.94-20.76-8-6.64 1.45-11.59 6.41-11.91 13.07-.4 7.97-.45 16 .04 23.97.48 7.86 6.45 13.06 14.63 13.75 9.72.82 16.95-2.82 18.66-10.49 1.16-5.17.71-10.71.98-16H843.7v6.64h9.34c0 1.81.06 3.12-.01 4.43-.3 5.34-2.92 8.04-8.02 8.34-5.2.31-9.21-2.32-9.53-7.4-.46-7.46-.27-14.98.06-22.45a6.9 6.9 0 0 1 6.16-6.88c3.76-.58 7.88-.5 9.63 3.42 2.2 4.96 5.7 3.86 9.91 3.33-.46-1.85-.85-3.42-1.53-5.73"/><path fill="#3d8ed9" d="M535.86 517.65c14.1-38.87 28.2-77.33 41.95-115.9 1.66-4.66 3.88-5.95 8.56-5.85 14.5.3 29 .11 43.5.11h5.49c-3.64 9.54-6.97 18.38-10.37 27.19-24.74 63.98-49.51 127.94-74.22 191.93-5.3 13.72-5.2 13.76-19.95 13.76-10.83 0-21.67-.2-32.5.13-4.05.12-5.8-1.26-7.2-4.94-28-73.07-56.13-146.09-84.22-219.11l-3.43-8.94h26.7c8.5 0 17 .1 25.5-.09 2.98-.07 4.38.9 5.4 3.74 17.92 49.83 35.94 99.62 53.94 149.41 1.35 3.73 2.74 7.45 5.22 11.31 5.17-14.13 10.34-28.25 15.63-42.75m60.99-26.3 35.6-92.1c-1.2-.81-1.35-.98-1.48-.98-15.82-.1-31.63-.29-47.44-.13-1.31.01-3.24 2.04-3.8 3.54-5.4 14.25-10.57 28.58-15.77 42.9q-11 30.37-21.95 60.77c-4.82 13.4-9.54 26.83-14.4 40.21-2.13 5.83-4.5 11.57-6.75 17.35l-1.74.27c-1.6-3.6-3.45-7.11-4.78-10.8-10.38-28.87-20.62-57.78-31-86.63-7.57-21.06-15.42-42.02-22.85-63.12-1.3-3.7-3.05-4.8-6.79-4.74-14.16.2-28.32.07-42.48.09-1.58 0-3.15.17-5.2.28.48 1.35.73 2.1 1.02 2.84 6.26 16.02 12.62 32 18.78 48.07 10.51 27.37 20.85 54.82 31.36 82.2 6.11 15.93 12.48 31.77 18.62 47.7 5.6 14.51 11.04 29.1 16.57 43.64.98 2.58 2.16 4.46 5.67 4.41 14.15-.22 28.32.05 42.47-.26 1.88-.04 4.65-1.97 5.42-3.72 3.62-8.3 6.72-16.84 9.95-25.32 7.55-19.82 15.01-39.68 22.6-59.48 5.94-15.46 12.02-30.86 18.37-46.98"/><path fill="#328adc" d="M792.81 419.52c-.34-3.31-.26-7.15-.97-10.83-.37-1.91-1.82-4.76-3.3-5.14-8.63-2.19-17.4-5.16-26.15-5.31-34.97-.6-69.96-.17-104.93-.36-4.46-.02-5.56 1.23-5.55 5.6q.2 108.94-.02 217.88c-.01 4.72 1.43 5.84 5.9 5.75 13.5-.27 27-.22 40.48-.01 3.77.05 4.82-1.13 4.8-4.83-.17-19.99-.09-39.98-.08-59.97 0-7.3 0-7.3 7.53-7.3 13.16 0 26.32-.04 39.48 0 17.97.06 35.32-2.71 51.44-11.17.86-.44 1.88-.57 3.21-.83-12 8.34-26.04 11.97-40.57 12.78-17.62.98-35.3.63-52.95.85-1.97.03-3.93 0-6.55 0v71.98h-53.46V396.27c1.57-.08 3.04-.2 4.5-.2 32.67 0 65.34-.48 97.98.27 11.65.27 23.24 3.5 34.86 5.43 3.5.59 4.98 2.57 4.6 6.3-.37 3.63-.12 7.32-.25 11.45"/><path fill="#3d8ed9" d="M200.56 598.44c-11.67-12.6-18.5-27.66-21.33-44.38a195 195 0 0 1-2.85-30.8c-.32-40.65-.13-81.32-.11-121.99 0-1.47.12-2.95.21-4.85h53.29v6.1c-.02 39.67-.08 79.34 0 119 .01 5.98.46 11.99 1.15 17.94a59.7 59.7 0 0 0 11.33 28.86c0 .43-.26.7-.56.53-9.92-11.48-13.33-25.2-13.5-39.4-.47-41.98-.23-83.98-.07-125.97.02-4.36-1.07-5.73-5.55-5.62-12.99.3-26 .34-38.99-.01-4.84-.14-5.71 1.58-5.7 5.97.15 40.66.05 81.32.14 121.98 0 5.79.36 11.61 1.03 17.36 1.49 12.7 4.34 25.12 10.37 36.48 3.38 6.37 7.71 12.23 11.5 18.45zm124.37-31.5c8.5-12.83 11.24-27.16 11.22-42.27-.05-40.65-.03-81.3-.03-121.94v-6.32h53c.1 1.37.28 2.81.28 4.26q.02 62.47-.07 124.93c-.03 17.48-2.2 34.67-9.71 50.62-3.44 7.3-8.42 13.88-13.09 20.86-.39.06-.6-.14-.53-.48 1.9-2.88 3.89-5.33 5.57-7.97 11.6-18.18 15.93-38.6 16.25-59.61.63-41.98.12-83.98.29-125.97.01-4.38-1.54-5.23-5.49-5.16-12.99.21-26 .3-38.98-.04-4.74-.12-5.79 1.42-5.77 5.91.17 40.16.36 80.32-.09 120.47-.1 9.64-1.88 19.42-4.25 28.8-1.3 5.1-5.46 9.47-8.4 14.1z"/><path fill="#328adc" d="M290.33 465.53a64.5 64.5 0 0 0-31.27-10.27c-1.32-.09-2.56-1.36-3.83-2.08 1.43-.74 2.9-2.16 4.3-2.1 18.14.94 33.49 8.22 45.76 21.49 11.22 12.14 17.44 26.62 18.11 43.25.06 1.52-1.09 3.08-1.67 4.61-.89-1.48-2.44-2.9-2.56-4.45-1.64-21.26-11.06-38.02-28.84-50.45"/><path fill="#1a8cf4" d="M262.77 529.13c-8.25 2.04-13.98-.38-16.57-6.68-2.2-5.4.02-12.26 4.97-15.33a12.5 12.5 0 0 1 17.08 4.02c3.95 6.2 1.93 13.26-5.48 18"/><path fill="#328adc" d="M305.95 511.83c.2 2.24.6 4.1.38 5.87-.14 1.04-1.3 1.93-2 2.9-.76-.95-1.93-1.8-2.18-2.87-1.19-4.99-1.42-10.3-3.26-15.02-6.9-17.64-19.87-27.8-38.89-29.9-.5-.05-1.09.1-1.47-.14-1.17-.68-2.26-1.5-3.38-2.26 1.3-.72 2.64-2.12 3.88-2.04 3.63.25 7.37.64 10.8 1.77 20.1 6.62 32.22 20.37 36.12 41.7"/><path fill="#3e7dba" d="M808.2 362.76c-6.59 12.76-3.88 26.77-4.12 40.4-.16 9.1-.19 18.35 1.14 27.32 1.4 9.56 9.93 15.6 19.65 15.6 25.48 0 50.96-.1 76.44.08 5.92.04 11.59-.42 17.3-3.15-4.2 1.58-8.76 4.5-13.37 4.59-26.48.44-52.98.3-79.47.16-13.56-.07-22.7-9.41-22.79-23.06-.1-15.83-.4-31.67.2-47.47.18-4.82 3.08-9.54 5.02-14.47"/><path fill="#3d8ed9" d="M356.41 607.42c-8.94 8.87-19.88 14.6-31.7 18.09-33.7 9.96-66.88 9.27-98.97-6.51-.6-.3-1.14-.68-1.82-1.4-.11-.38.12-.65.47-.6 19.7 9.9 40.27 13.61 61.87 13.1 20.02-.48 39.12-4.12 56.52-14.5 4.51-2.68 8.8-5.75 13.3-8.53z"/><path fill="#3e7dba" d="M923.73 438.14c5.25-21.04 1.37-42.65 2.19-64.07.35-9.44-10.57-18.04-21.48-18.07-24.44-.04-48.89 0-73.33-.02-1.82 0-3.64-.17-5.78-.5 15.98-.35 32.29-.47 48.6-.53 10.66-.05 21.32-.08 31.97.02 12.18.11 21.68 9.12 21.9 21.35.3 16.65.32 33.31-.1 49.95-.1 3.92-2.4 7.8-3.97 11.87"/><path fill="#328adc" d="M260.57 490.22c-1.23-.14-2.24.05-2.85-.35-.95-.63-1.64-1.66-2.44-2.52.89-.6 1.7-1.5 2.68-1.72 1.08-.26 2.32.03 3.47.2 14.73 2.2 26.73 15.02 27.7 29.91.11 1.55-1.26 3.2-1.94 4.8-.75-1.45-2-2.85-2.17-4.38-1.53-13.22-10.48-22.96-24.45-25.94m554.77 45.72c.64-1.39 1.34-3.15 2.62-4.29 12.14-10.85 19.15-24.7 21.53-40.43 1.44-9.5.56-19.4.22-29.1-.04-1.09-3.3-2.75-5.2-2.96-6.06-.7-12.35-.1-18.23-1.42-4.25-.95-8-4.17-11.98-6.74 9.27 6.46 19.91 7.5 30.88 6.6 4.29-.35 5.72 1.15 6.2 5.37 3.3 28.54-3.13 53.53-26.04 72.97"/><path fill="#3d8ed9" d="M249.08 574.92c16.73 11.04 34.85 12.21 53.59 6.88 5-1.43 9.49-4.64 14.65-7.05.43 0 .7.27.53.57-3.63 2.43-6.89 5.14-10.63 6.61-14.66 5.79-29.8 5.7-44.72 1.48-4.94-1.4-9.15-5.4-13.63-8.28z"/><path fill="#328adc" d="M799 444.62c-6.38-5.4-7.64-12.83-6.53-21.26.56 7.27 2.12 14.5 6.53 21.26"/><path fill="#3e7dba" d="M821.7 355.35q-4.82 2.66-10.74 5.18 4.8-2.66 10.73-5.18"/><path fill="#3d8ed9" d="M318.6 573.59c1.47-1.55 2.94-3.1 4.8-4.71.4-.06.64.15.59.49a42 42 0 0 1-5.07 4.55zm-111.7 31.52c-1.4-1.34-2.8-2.68-4.2-4.43 0-.4.3-.69.6-.54a52 52 0 0 1 3.82 4.74z"/><path fill="#3e7dba" d="M919.3 442.91c.92-1.46 2.16-3 3.75-4.52a24 24 0 0 1-3.74 4.52"/><path fill="#3d8ed9" d="M218.55 614.39a47 47 0 0 1-4.39-3.1q-.13-.53.35-.4a37 37 0 0 1 4.4 3.18zm5.14 2.97a34 34 0 0 1-4.94-2.71c-.2-.26.04-.47.5-.53a36 36 0 0 1 4.79 2.83z"/><path fill="#328adc" d="M805.34 543c.85-.93 2.04-1.9 3.58-2.8-.85.97-2.05 1.86-3.58 2.8m4.19-2.75q1.2-1.44 3.41-3-1.2 1.44-3.4 3"/><path fill="#3d8ed9" d="M213.98 611.02a14 14 0 0 1-3.1-2.47c-.04-.39.16-.6.49-.55 1.16.97 2 1.89 2.83 2.8zm-5.5-4.39c-.45-.34-.9-.67-1.46-1.27q-.17-.39.37-.4c.76.35 1.2.7 1.48 1.18z"/><path fill="#328adc" d="M813.51 537.28q.14-.57 1.2-1.25-.14.59-1.2 1.25m-13.19-90.85q-.6-.12-1.27-1.17.58.13 1.27 1.17"/><path fill="#3d8ed9" d="M247.44 573.57c.45.29.91.58 1.5 1.1q.19.38-.34.38a3.4 3.4 0 0 1-1.5-1.14zm76.24-4.85c.18-.57.47-1.04 1-1.64q.39-.2.37.32c-.34.77-.68 1.2-1.01 1.63zm39.88 31.79c-.2.27-.41.55-.95.8-.34-.02-.62-.32-.51-.54.3-.49.57-.68 1.02-.65zm-1.16.94c-.03.45-.23.7-.8.88-.33-.04-.61-.34-.5-.56.31-.49.57-.68.89-.78 0 0 .28.3.4.46"/><path fill="#3d8ed9" d="M364.5 599.49a2 2 0 0 1-.75.89c-.2.13-.49-.13-.52-.48.17-.62.43-.81.88-.8z"/><path fill="#3d8ed9" d="M365.44 598.44c-.1.31-.28.57-.74.92-.2.13-.46-.12-.48-.47.18-.6.43-.8.86-.8zm-162.91 1.96c-.44-.04-.67-.24-.83-.82.03-.33.31-.6.53-.48.48.31.67.57.78.9 0 0-.3.27-.48.4"/><path fill="#328adc" d="M801.24 447.5c-.26.09-.6-.07-.93-.54q.4-.15.93.53"/><path fill="#3d8ed9" d="M361.4 602.46c-.03.44-.23.7-.8.87-.33-.04-.61-.34-.5-.56.31-.49.57-.67.89-.78 0 0 .28.3.4.47m-.99 1c-.03.45-.23.7-.8.87-.33-.04-.61-.34-.5-.56.31-.49.57-.67.89-.78 0 0 .28.3.4.47m-.99 1c-.04.44-.24.67-.82.84-.33-.03-.6-.32-.49-.53.32-.49.58-.68.9-.78 0 0 .28.3.4.47"/><path fill="#3d8ed9" d="M358.38 605.42c-.02.43-.22.67-.81.85-.33-.03-.6-.3-.48-.5.32-.49.57-.68.9-.79zm-148.86 2.08a2 2 0 0 1-.9-.69c-.14-.18.1-.51.47-.56.62.16.82.41.8.85zm147.84-1.12c-.03.43-.24.66-.73.94-.22.1-.45-.14-.44-.46.22-.59.48-.77.79-.88z"/><path fill="#3d8ed9" d="M210.73 608.27c-.43.02-.7-.14-1.07-.57-.14-.2.1-.47.45-.49.61.18.8.43.93.74z"/><path fill="#3e7dba" d="M809.18 361.71c.11.23.04.53-.3.79-.23-.33-.1-.55.3-.79m1.06-1.02c.1.24 0 .54-.36.76-.2-.35-.06-.56.36-.76"/><path fill="#328adc" d="M804.25 450.43q-.4.2-.98-.44.4-.2.98.44m-1.02-.93q-.4.16-.96-.5.4-.18.96.5m-1-1q-.4.16-.96-.51.4-.17.96.5"/><path fill="#3d8ed9" d="M201.58 599.38c-.42-.04-.65-.25-.92-.73-.1-.21.14-.45.47-.44.6.2.78.46.88.78zm40.82-30.75c.42.03.65.25.8.85-.01.33-.23.55-.44.43-.48-.32-.66-.58-.77-.9z"/><path fill="#3d8ed9" d="M243.3 569.7c.42 0 .67.2.85.82 0 .33-.2.52-.4.4-.48-.32-.67-.58-.78-.9z"/><path fill="#3d8ed9" d="M244.25 570.75c.42-.01.69.17.9.77 0 .33-.2.53-.4.4a2 2 0 0 1-.8-.88z"/><path fill="#3d8ed9" d="M245.24 571.75c.43-.01.7.17.91.77 0 .32-.2.52-.4.4a2 2 0 0 1-.8-.87zm1.02.99c.42-.02.7.15 1.05.62.13.2-.1.44-.43.44-.6-.2-.8-.45-.92-.76zm71.37 1.86c.03-.42.25-.65.75-.92.21-.1.43.13.42.45-.2.6-.47.78-.79.89zm48.62 22.64c.02.43-.15.71-.6 1.07-.21.13-.45-.1-.46-.44.2-.6.44-.8.74-.93z"/><path fill="#328adc" d="M703.94 440.97c1.31-.66 2.62-1.86 3.94-1.88 13.48-.14 26.97-.52 40.42.1 7.62.34 15.61.48 22.54 5.48q.18.56-.4.5c-4.02-1.14-7.66-3.06-11.34-3.17-18.28-.52-36.56-.55-54.92-.83zm66.16 67.13c-3.13 1.3-6.18 3.38-9.42 3.74a443 443 0 0 1-29.6 2.08c-7.45.31-14.93.12-22.4 0-1.5-.02-3-.72-4.55-1.57-.03-.46.14-.6.58-.53 12.55.13 24.66.04 36.77.25 9.7.16 19.19-.77 28.37-4.26z"/><path fill="#328adc" d="M704.02 511.96c-.4-1.16-.99-2.4-1-3.63q-.06-32.4-.01-64.81c0-.65.23-1.3.64-2.25q.41-.44.56.35c.1 23.72.07 46.92.06 70.12zm82.12-52.09c1.26 2.6 3.53 5.16 3.59 7.79.16 6.6-.67 13.24-1.55 20-.44.14-.74-.09-.67-.5 2.38-9.47 1.34-18.3-1.62-27.08zm-13.07-13.96c.95.45 1.9.9 2.86 1.76q0 .64-.46.51a16 16 0 0 1-2.64-1.98zm10.07 51.21c-.46.94-.93 1.88-1.8 2.82q-.61 0-.49-.45c.76-1.04 1.42-1.8 2.13-2.5zm.01-42.26c.62.81 1.25 1.62 1.83 2.8q-.06.6-.46.35a15 15 0 0 1-1.62-2.93zm-8.01 50.29c-.81.62-1.62 1.24-2.82 1.81-.4-.04-.55-.23-.36-.48 1.1-.7 2-1.17 2.98-1.56zm3.96-3.06a7 7 0 0 1-1.86 1.79c-.43-.07-.67-.31-.51-.56.8-.68 1.43-1.11 2.14-1.47z"/><path fill="#328adc" d="M772 507.01c-.4.4-.86.7-1.62 1.04-.28.06-.44-.14-.34-.46.65-.5 1.2-.68 1.73-.86zm5.11-58.14a4 4 0 0 1 1.64 1c.04.38-.22.69-.47.55a7 7 0 0 1-1.34-1.36zm-.18 55.07c-.33.44-.78.76-1.51 1.15q-.43.08-.34-.4c.54-.59 1.02-.85 1.49-1.12zm8.2-9.84c-.2.54-.4 1.08-.92 1.72-.32.09-.51-.08-.45-.36.41-.7.75-1.14 1.16-1.52zm1-2c-.2.53-.38 1.07-.79 1.8-.21.2-.35.09-.38-.25.29-.81.6-1.28.98-1.7z"/><path fill="#328adc" d="M787.11 490.08a10 10 0 0 1-.76 1.82q-.33.29-.4-.24a4.4 4.4 0 0 1 .92-1.76z"/><path fill="#328adc" d="M787.9 487.92a4 4 0 0 1-.57 1.97c-.22.2-.38.07-.45-.3.14-.9.35-1.46.56-2.02zm-16.85-42.97c.6.12 1.13.31 1.84.74.18.22.02.41-.34.45a6 6 0 0 1-1.73-.92zm13.98 13.03c.39.4.69.87 1.05 1.61.06.28-.1.42-.42.31-.5-.64-.7-1.18-.88-1.71zm-2.99-5.03c.33.45.65.9 1.04 1.63.07.28-.1.43-.42.37a2.8 2.8 0 0 1-1.11-1.56zm-6.03-4.95c.38.05.63.24.97.67q.18.32-.28.32c-.62-.14-.83-.39-.93-.73z"/><path fill="#328adc" d="M781.05 451.95c.3.12.56.31.87.8.12.2-.2.5-.55.5-.56-.23-.73-.48-.71-.9zm-2.13-1.85c.43-.02.7.17.88.77-.01.34-.28.6-.48.5-.45-.3-.65-.54-.8-.81zm5.06 45.9c-.03.38-.21.63-.65.98q-.3.2-.3-.24c.22-.53.44-.76.67-1zm-2.97 4.03c-.06.37-.25.62-.79.87-.28.04-.44-.12-.35-.35.29-.51.55-.7.89-.77zm-.99 1c-.07.37-.27.6-.71.93-.2.13-.36-.03-.35-.34.21-.6.48-.77.82-.84zm-.1-49.95c.44 0 .69.2 1 .66.13.2-.13.47-.47.48-.6-.2-.79-.45-.93-.74z"/><path fill="#f0fafe" d="M870.1 412v-36.27c8.44.63 16.67.79 24.74 2.01 4.53.69 7.27 4.56 8.08 9.19.97 5.47-.93 9.81-5.17 12.23 2.23 3.8 5.37 7.22 6.31 11.16 1.89 7.93-3.25 14.78-11.44 15.48-7.24.62-14.57.13-22.53.13zm8.17 3.3c-.4 2.93.67 4.31 3.83 4 2.47-.25 4.98-.01 7.45-.22 4.16-.35 6.15-2.94 6.4-6.91.25-4.14-1.37-7.45-5.66-8.06-3.81-.53-7.76-.1-12.02-.1zm7.91-18.49c6.38-.49 8.97-2.58 8.75-7.06-.22-4.25-3.07-6.37-8.89-6.53-2.43-.06-4.86 0-7.45 0v13.6zm-26.32-12.31c.53 1.93.92 3.5 1.38 5.35-4.2.53-7.7 1.63-9.91-3.33-1.75-3.92-5.87-4-9.63-3.42-3.8.59-6 3.28-6.16 6.88-.33 7.47-.52 14.99-.06 22.44.32 5.1 4.33 7.72 9.53 7.41 5.1-.3 7.72-3 8.02-8.34.07-1.3 0-2.62 0-4.43h-9.33v-6.64h17.65c-.27 5.29.18 10.83-.98 16-1.71 7.67-8.94 11.3-18.66 10.49-8.18-.7-14.15-5.89-14.63-13.75-.49-7.97-.43-16-.04-23.97.32-6.66 5.27-11.62 11.9-13.06 8.98-1.95 16.48.93 20.92 8.36"/><path fill="#1a8cf4" d="M596.68 491.7c-6.18 15.78-12.26 31.18-18.2 46.64-7.59 19.8-15.05 39.66-22.6 59.48-3.23 8.48-6.33 17.01-9.95 25.32-.77 1.75-3.54 3.68-5.42 3.72-14.15.31-28.32.04-42.47.26-3.5.05-4.69-1.83-5.67-4.41-5.53-14.55-10.97-29.13-16.57-43.65-6.14-15.92-12.5-31.76-18.62-47.7-10.51-27.37-20.85-54.82-31.36-82.2-6.16-16.05-12.52-32.04-18.78-48.06-.3-.74-.54-1.5-1.02-2.84 2.05-.11 3.62-.28 5.2-.28 14.16-.02 28.32.1 42.48-.1 3.74-.04 5.48 1.04 6.79 4.75 7.43 21.1 15.28 42.06 22.85 63.12 10.38 28.85 20.62 57.76 31 86.62 1.33 3.7 3.17 7.2 4.78 10.8l1.74-.26c2.26-5.78 4.62-11.52 6.74-17.35 4.87-13.38 9.59-26.81 14.41-40.2q10.94-30.4 21.95-60.77c5.2-14.33 10.38-28.66 15.77-42.9.56-1.5 2.49-3.54 3.8-3.55 15.81-.16 31.62.02 47.44.13.13 0 .27.17 1.49.99Q614.78 445 596.68 491.7"/><path fill="#1a8cf5" d="M366 596.6c-.37.48-.62.68-.92 1.15-.43.34-.68.53-.99 1.01-.43.33-.69.52-1 1-.42.33-.68.52-1 1.01-.42.32-.68.51-1 1-.42.33-.68.51-1 1-.42.33-.68.51-1 1-.42.32-.68.51-1 1a3.4 3.4 0 0 0-1 1c-.42.32-.68.5-1 .97-4.52 3.1-8.8 6.18-13.3 8.87-17.4 10.37-36.5 14.01-56.53 14.49-21.6.51-42.17-3.2-61.87-13.1-1.8-1.02-3.25-1.98-5.03-2.99-1.73-1.04-3.13-2.03-4.85-3.11-1.15-1.01-1.98-1.93-3.14-2.9-.45-.36-.65-.61-1.13-.92a4 4 0 0 0-1.01-.98c-.65-.45-1.08-.79-1.77-1.2-1.47-1.6-2.67-3.1-4.16-4.76-.4-.47-.59-.73-1.07-1.04-.32-.43-.5-.69-.98-1.01-4.12-6.22-8.45-12.08-11.83-18.45-6.03-11.36-8.88-23.78-10.37-36.48a152 152 0 0 1-1.03-17.36c-.09-40.66.01-81.32-.14-121.98-.01-4.39.86-6.1 5.7-5.97 13 .35 26 .31 39 0 4.47-.1 5.56 1.27 5.54 5.63-.16 42-.4 83.99.08 125.98.16 14.18 3.57 27.91 13.49 39.4.4.47.6.73 1.07 1.05.32.43.51.69.99 1.01.33.43.52.68 1 1 .33.43.52.69 1 1 .33.43.53.68 1.01 1 .65.44 1.08.78 1.78 1.2 4.81 2.89 9.02 6.88 13.96 8.29 14.92 4.22 30.06 4.3 44.72-1.48 3.74-1.47 7-4.18 10.63-6.61.48-.41.74-.6 1.06-1.07 1.75-1.66 3.39-3.1 5.08-4.88.38-.77.72-1.2 1.13-1.9 2.95-4.97 7.11-9.35 8.4-14.45 2.38-9.37 4.15-19.15 4.26-28.79.45-40.15.26-80.31.1-120.47-.03-4.49 1.02-6.03 5.76-5.9 12.99.32 26 .24 38.99.03 3.94-.07 5.5.78 5.48 5.16-.17 41.99.34 83.99-.29 125.97-.32 21.01-4.66 41.43-16.25 59.6-1.68 2.65-3.66 5.1-5.57 7.98"/><path fill="#fcfeff" d="M779.32 451.36c.34.41.54.66 1 1 .32.4.5.66.89 1.03.49.6.8 1.05 1.36 1.63.73 1.03 1.21 1.92 1.95 3 .45.7.64 1.24 1.06 1.95 3.27 8.89 4.3 17.72 1.93 27.2-.28.96-.49 1.51-.7 2.36-.31.8-.6 1.29-.92 2.08-.33.76-.64 1.23-1 1.98-.38.73-.72 1.16-1.13 1.87-.29.52-.51.75-.78 1.23-.7 1-1.37 1.76-2.13 2.8-.43.37-.7.55-.98 1.06-.43.3-.7.48-.99 1-.72.66-1.36 1.1-2.15 1.77-.63.52-1.1.78-1.72 1.29-1.04.7-1.95 1.16-3.05 1.87-.73.43-1.27.61-2 1.02-9.3 3.8-18.77 4.73-28.48 4.57-12.1-.2-24.22-.12-36.77-.25-.43-23.28-.4-46.48-.42-70.13 18.25-.24 36.53-.2 54.8.31 3.7.1 7.33 2.03 11.36 3.17.83.37 1.29.69 2.03 1.06 1.08.66 1.9 1.27 3 1.95.4.42.6.67 1.17.88.62.45 1 .84 1.63 1.36.4.41.6.64 1.04.94"/><path fill="#0a69c4" d="M878.26 414.81v-10.82c4.26 0 8.2-.42 12.02.11 4.3.61 5.9 3.92 5.65 8.06-.24 3.97-2.23 6.56-6.39 6.91-2.47.2-4.98-.03-7.45.22-3.16.31-4.23-1.07-3.83-4.48m7.47-18.01h-7.15v-13.6c2.6 0 5.02-.06 7.45 0 5.82.16 8.67 2.28 8.89 6.53.22 4.48-2.37 6.57-9.19 7.06"/></svg>